<svg width="32" height="32" viewBox="0 0 32 32" fill="none" xmlns="http://www.w3.org/2000/svg">
<g clip-path="url(#clip0_2107_7851)">
<path d="M20.5 32H2.5C1.12 32 0 30.88 0 29.5V2.5C0 1.12 1.12 0 2.5 0H14.67C15.34 0 15.97 0.26 16.44 0.73L22.27 6.56C22.74 7.03 23 7.66 23 8.33V29.5C23 30.88 21.88 32 20.5 32ZM2.5 1C1.67 1 1 1.67 1 2.5V29.5C1 30.33 1.67 31 2.5 31H20.5C21.33 31 22 30.33 22 29.5V8.33C22 7.93 21.84 7.55 21.56 7.27L15.73 1.44C15.45 1.16 15.07 1 14.67 1H2.5Z" fill="#696B6F"/>
<path d="M22 8H15.5C15.22 8 15 7.78 15 7.5V1C15 0.72 15.22 0.5 15.5 0.5C15.78 0.5 16 0.72 16 1V7H22C22.28 7 22.5 7.22 22.5 7.5C22.5 7.78 22.28 8 22 8Z" fill="#696B6F"/>
<path d="M7.49999 28C7.29999 28 7.10999 27.88 7.03999 27.69L5.49999 23.85L3.95999 27.69C3.85999 27.95 3.55999 28.07 3.30999 27.97C3.05999 27.87 2.92999 27.58 3.02999 27.32L5.02999 22.32C5.17999 21.94 5.80999 21.94 5.95999 22.32L7.95999 27.32C8.05999 27.58 7.93999 27.87 7.67999 27.97C7.61999 27.99 7.55999 28.01 7.48999 28.01L7.49999 28Z" fill="#696B6F"/>
<path d="M7 27H4C3.72 27 3.5 26.78 3.5 26.5C3.5 26.22 3.72 26 4 26H7C7.28 26 7.5 26.22 7.5 26.5C7.5 26.78 7.28 27 7 27Z" fill="#696B6F"/>
<path d="M19.5 28C19.3 28 19.11 27.88 19.04 27.69L17.5 23.85L15.96 27.69C15.86 27.95 15.56 28.07 15.31 27.97C15.05 27.87 14.93 27.58 15.03 27.32L17.03 22.32C17.18 21.94 17.81 21.94 17.96 22.32L19.96 27.32C20.06 27.58 19.94 27.87 19.68 27.97C19.62 27.99 19.56 28.01 19.49 28.01L19.5 28Z" fill="#696B6F"/>
<path d="M19 27H16C15.72 27 15.5 26.78 15.5 26.5C15.5 26.22 15.72 26 16 26H19C19.28 26 19.5 26.22 19.5 26.5C19.5 26.78 19.28 27 19 27Z" fill="#696B6F"/>
<path d="M13.5 28H9.5C9.22 28 9 27.78 9 27.5C9 27.22 9.22 27 9.5 27H13.5C13.78 27 14 27.22 14 27.5C14 27.78 13.78 28 13.5 28Z" fill="#696B6F"/>
<path d="M9.5 28C9.22 28 9 27.78 9 27.5C9 26.1 10.4 25.5 11.52 25.01C12.22 24.71 13 24.37 13 24C13 23.46 12.31 23 11.5 23C10.69 23 10 23.46 10 24C10 24.28 9.78 24.5 9.5 24.5C9.22 24.5 9 24.28 9 24C9 22.9 10.12 22 11.5 22C12.88 22 14 22.9 14 24C14 25.02 12.94 25.48 11.91 25.93C10.75 26.43 10 26.81 10 27.5C10 27.78 9.78 28 9.5 28Z" fill="#696B6F"/>
<path d="M18.5 13H4.5C4.22 13 4 12.78 4 12.5C4 12.22 4.22 12 4.5 12H18.5C18.78 12 19 12.22 19 12.5C19 12.78 18.78 13 18.5 13Z" fill="#696B6F"/>
<path d="M11.5 10H4.5C4.22 10 4 9.78 4 9.5C4 9.22 4.22 9 4.5 9H11.5C11.78 9 12 9.22 12 9.5C12 9.78 11.78 10 11.5 10Z" fill="#696B6F"/>
<path d="M11.5 7H4.5C4.22 7 4 6.78 4 6.5C4 6.22 4.22 6 4.5 6H11.5C11.78 6 12 6.22 12 6.5C12 6.78 11.78 7 11.5 7Z" fill="#696B6F"/>
<path d="M18.5 16H4.5C4.22 16 4 15.78 4 15.5C4 15.22 4.22 15 4.5 15H18.5C18.78 15 19 15.22 19 15.5C19 15.78 18.78 16 18.5 16Z" fill="#696B6F"/>
<path d="M18.5 19H4.5C4.22 19 4 18.78 4 18.5C4 18.22 4.22 18 4.5 18H18.5C18.78 18 19 18.22 19 18.5C19 18.78 18.78 19 18.5 19Z" fill="#696B6F"/>
<path d="M30.5 28H22.5C22.22 28 22 27.78 22 27.5C22 27.22 22.22 27 22.5 27H30.5C30.78 27 31 26.78 31 26.5V6.33C31 5.93 30.84 5.55 30.56 5.27L26.73 1.44C26.45 1.16 26.07 1 25.67 1H14.5C14.22 1 14 0.78 14 0.5C14 0.22 14.22 0 14.5 0H25.67C26.34 0 26.97 0.26 27.44 0.73L31.27 4.56C31.74 5.03 32 5.66 32 6.33V26.5C32 27.33 31.33 28 30.5 28Z" fill="#696B6F"/>
<path d="M31 6H26.5C26.22 6 26 5.78 26 5.5V1C26 0.72 26.22 0.5 26.5 0.5C26.78 0.5 27 0.72 27 1V5H31C31.28 5 31.5 5.22 31.5 5.5C31.5 5.78 31.28 6 31 6Z" fill="#696B6F"/>
<path d="M28.5 18H22.5C22.22 18 22 17.78 22 17.5C22 17.22 22.22 17 22.5 17H28.5C28.78 17 29 17.22 29 17.5C29 17.78 28.78 18 28.5 18Z" fill="#696B6F"/>
<path d="M28.5 15H22.5C22.22 15 22 14.78 22 14.5C22 14.22 22.22 14 22.5 14H28.5C28.78 14 29 14.22 29 14.5C29 14.78 28.78 15 28.5 15Z" fill="#696B6F"/>
<path d="M28.5 12H22.5C22.22 12 22 11.78 22 11.5C22 11.22 22.22 11 22.5 11H28.5C28.78 11 29 11.22 29 11.5C29 11.78 28.78 12 28.5 12Z" fill="#696B6F"/>
</g>
<defs>
<clipPath id="clip0_2107_7851">
<rect width="32" height="32" fill="white"/>
</clipPath>
</defs>
</svg>
