<svg width="26" height="26" viewBox="0 0 26 26" fill="none" xmlns="http://www.w3.org/2000/svg">
<path d="M11 23H2.5C1.12 23 0 21.88 0 20.5V2.5C0 1.12 1.12 0 2.5 0H14.5C15.88 0 17 1.12 17 2.5V9C17 9.28 16.78 9.5 16.5 9.5C16.22 9.5 16 9.28 16 9V2.5C16 1.67 15.33 1 14.5 1H2.5C1.67 1 1 1.67 1 2.5V20.5C1 21.33 1.67 22 2.5 22H11C11.28 22 11.5 22.22 11.5 22.5C11.5 22.78 11.28 23 11 23Z" fill="#C41D39"/>
<path d="M17.5 26C12.81 26 9 22.19 9 17.5C9 12.81 12.81 9 17.5 9C22.19 9 26 12.81 26 17.5C26 22.19 22.19 26 17.5 26ZM17.5 10C13.36 10 10 13.36 10 17.5C10 21.64 13.36 25 17.5 25C21.64 25 25 21.64 25 17.5C25 13.36 21.64 10 17.5 10Z" fill="#C41D39"/>
<path d="M13.5 6H3.5C3.22 6 3 5.78 3 5.5C3 5.22 3.22 5 3.5 5H13.5C13.78 5 14 5.22 14 5.5C14 5.78 13.78 6 13.5 6Z" fill="#C41D39"/>
<path d="M10.5 10H3.5C3.22 10 3 9.78 3 9.5C3 9.22 3.22 9 3.5 9H10.5C10.78 9 11 9.22 11 9.5C11 9.78 10.78 10 10.5 10Z" fill="#C41D39"/>
<path d="M11 13H3.5C3.22 13 3 12.78 3 12.5C3 12.22 3.22 12 3.5 12H11C11.28 12 11.5 12.22 11.5 12.5C11.5 12.78 11.28 13 11 13Z" fill="#C41D39"/>
<path d="M9.5 16H3.5C3.22 16 3 15.78 3 15.5C3 15.22 3.22 15 3.5 15H9.5C9.78 15 10 15.22 10 15.5C10 15.78 9.78 16 9.5 16Z" fill="#C41D39"/>
<path d="M9.5 19H3.5C3.22 19 3 18.78 3 18.5C3 18.22 3.22 18 3.5 18H9.5C9.78 18 10 18.22 10 18.5C10 18.78 9.78 19 9.5 19Z" fill="#C41D39"/>
<path d="M17.5 21C17.22 21 17 20.78 17 20.5V14.5C17 14.22 17.22 14 17.5 14C17.78 14 18 14.22 18 14.5V20.5C18 20.78 17.78 21 17.5 21Z" fill="#C41D39"/>
<path d="M20.5 18H14.5C14.22 18 14 17.78 14 17.5C14 17.22 14.22 17 14.5 17H20.5C20.78 17 21 17.22 21 17.5C21 17.78 20.78 18 20.5 18Z" fill="#C41D39"/>
</svg>
