<svg width="26" height="26" viewBox="0 0 26 26" fill="none" xmlns="http://www.w3.org/2000/svg">
<path d="M11 23H2.5C1.12 23 0 21.88 0 20.5V2.5C0 1.12 1.12 0 2.5 0H14.5C15.88 0 17 1.12 17 2.5V9C17 9.28 16.78 9.5 16.5 9.5C16.22 9.5 16 9.28 16 9V2.5C16 1.67 15.33 1 14.5 1H2.5C1.67 1 1 1.67 1 2.5V20.5C1 21.33 1.67 22 2.5 22H11C11.28 22 11.5 22.22 11.5 22.5C11.5 22.78 11.28 23 11 23Z" fill="#C41D39"/>
<path d="M17.5 26C12.81 26 9 22.19 9 17.5C9 12.81 12.81 9 17.5 9C22.19 9 26 12.81 26 17.5C26 22.19 22.19 26 17.5 26ZM17.5 10C13.36 10 10 13.36 10 17.5C10 21.64 13.36 25 17.5 25C21.64 25 25 21.64 25 17.5C25 13.36 21.64 10 17.5 10Z" fill="#C41D39"/>
<path d="M10.5 10H3.5C3.22 10 3 9.78 3 9.5C3 9.22 3.22 9 3.5 9H10.5C10.78 9 11 9.22 11 9.5C11 9.78 10.78 10 10.5 10Z" fill="#C41D39"/>
<path d="M11 13H3.5C3.22 13 3 12.78 3 12.5C3 12.22 3.22 12 3.5 12H11C11.28 12 11.5 12.22 11.5 12.5C11.5 12.78 11.28 13 11 13Z" fill="#C41D39"/>
<path d="M9.5 16H3.5C3.22 16 3 15.78 3 15.5C3 15.22 3.22 15 3.5 15H9.5C9.78 15 10 15.22 10 15.5C10 15.78 9.78 16 9.5 16Z" fill="#C41D39"/>
<path d="M9.5 19H3.5C3.22 19 3 18.78 3 18.5C3 18.22 3.22 18 3.5 18H9.5C9.78 18 10 18.22 10 18.5C10 18.78 9.78 19 9.5 19Z" fill="#C41D39"/>
<path d="M17.5 21C17.22 21 17 20.78 17 20.5V14.5C17 14.22 17.22 14 17.5 14C17.78 14 18 14.22 18 14.5V20.5C18 20.78 17.78 21 17.5 21Z" fill="#C41D39"/>
<path d="M20.5 18H14.5C14.22 18 14 17.78 14 17.5C14 17.22 14.22 17 14.5 17H20.5C20.78 17 21 17.22 21 17.5C21 17.78 20.78 18 20.5 18Z" fill="#C41D39"/>
<path d="M14.4501 7.13L12.4501 3.13C12.2801 2.79 11.7301 2.79 11.5601 3.13L9.56013 7.13C9.44013 7.38 9.54012 7.68 9.78012 7.8C10.0301 7.92 10.3301 7.82 10.4501 7.58L12.0001 4.47L13.5501 7.58C13.6401 7.76 13.8101 7.86 14.0001 7.86C14.0801 7.86 14.1501 7.84 14.2201 7.81C14.4701 7.69 14.5701 7.39 14.4401 7.14L14.4501 7.13Z" fill="#C41D39"/>
<path d="M7 2.85999C6.03 2.85999 5.23 3.71999 5.04 4.85999H4.5V3.35999C4.5 3.07999 4.28 2.85999 4 2.85999C3.72 2.85999 3.5 3.07999 3.5 3.35999V7.35999C3.5 7.63999 3.72 7.85999 4 7.85999C4.28 7.85999 4.5 7.63999 4.5 7.35999V5.85999H5.04C5.23 6.99999 6.03 7.85999 7 7.85999C8.1 7.85999 9 6.73999 9 5.35999C9 3.97999 8.1 2.85999 7 2.85999ZM7 6.85999C6.46 6.85999 6 6.16999 6 5.35999C6 4.54999 6.46 3.85999 7 3.85999C7.54 3.85999 8 4.54999 8 5.35999C8 6.16999 7.54 6.85999 7 6.85999Z" fill="#C41D39"/>
</svg>
