<svg width="32" height="30" viewBox="0 0 32 30" fill="none" xmlns="http://www.w3.org/2000/svg">
<path d="M4.5 21C3.12 21 2 19.88 2 18.5C2 17.12 3.12 16 4.5 16C5.88 16 7 17.12 7 18.5C7 19.88 5.88 21 4.5 21ZM4.5 17C3.67 17 3 17.67 3 18.5C3 19.33 3.67 20 4.5 20C5.33 20 6 19.33 6 18.5C6 17.67 5.33 17 4.5 17Z" fill="#696B6F"/>
<path d="M4.5 12C3.12 12 2 10.88 2 9.5C2 8.12 3.12 7 4.5 7C5.88 7 7 8.12 7 9.5C7 10.88 5.88 12 4.5 12ZM4.5 8C3.67 8 3 8.67 3 9.5C3 10.33 3.67 11 4.5 11C5.33 11 6 10.33 6 9.5C6 8.67 5.33 8 4.5 8Z" fill="#696B6F"/>
<path d="M9.5 6C8.12 6 7 4.88 7 3.5C7 2.12 8.12 1 9.5 1C10.88 1 12 2.12 12 3.5C12 4.88 10.88 6 9.5 6ZM9.5 2C8.67 2 8 2.67 8 3.5C8 4.33 8.67 5 9.5 5C10.33 5 11 4.33 11 3.5C11 2.67 10.33 2 9.5 2Z" fill="#696B6F"/>
<path d="M23.5 6C22.12 6 21 4.88 21 3.5C21 2.12 22.12 1 23.5 1C24.88 1 26 2.12 26 3.5C26 4.88 24.88 6 23.5 6ZM23.5 2C22.67 2 22 2.67 22 3.5C22 4.33 22.67 5 23.5 5C24.33 5 25 4.33 25 3.5C25 2.67 24.33 2 23.5 2Z" fill="#696B6F"/>
<path d="M27.5 15C26.12 15 25 13.88 25 12.5C25 11.12 26.12 10 27.5 10C28.88 10 30 11.12 30 12.5C30 13.88 28.88 15 27.5 15ZM27.5 11C26.67 11 26 11.67 26 12.5C26 13.33 26.67 14 27.5 14C28.33 14 29 13.33 29 12.5C29 11.67 28.33 11 27.5 11Z" fill="#696B6F"/>
<path d="M11.3521 4.64934L10.645 5.35645L13.1482 7.8596L13.8553 7.1525L11.3521 4.64934Z" fill="#696B6F"/>
<path d="M12.5 9H6.5V10H12.5V9Z" fill="#696B6F"/>
<path d="M21.7075 4.4713L18.203 7.09869L18.8029 7.8988L22.3073 5.2714L21.7075 4.4713Z" fill="#696B6F"/>
<path d="M6.32998 17.45L5.66998 16.7L12.13 11.04C12.04 10.7 12 10.36 12 10.01C12 7.80001 13.79 6.01001 16 6.01001C18.21 6.01001 20 7.80001 20 10.01C20 10.05 20 10.1 20 10.14L25.66 12.03L25.34 12.98L19.31 10.96C19.08 10.88 18.94 10.65 18.97 10.42C18.99 10.29 19 10.15 19 10.01C19 8.36001 17.65 7.01001 16 7.01001C14.35 7.01001 13 8.36001 13 10.01C13 10.3 13.04 10.59 13.12 10.87L13.17 11.02C13.28 11.23 13.21 11.43 13.04 11.58L6.32998 17.46V17.45Z" fill="#696B6F"/>
<path d="M14.5 23C14.22 23 14 22.78 14 22.5V11C14 9.9 14.9 9 16 9C17.1 9 18 9.9 18 11V19.5C18 19.78 17.78 20 17.5 20C17.22 20 17 19.78 17 19.5V11C17 10.45 16.55 10 16 10C15.45 10 15 10.45 15 11V22.5C15 22.78 14.78 23 14.5 23Z" fill="#696B6F"/>
<path d="M21 19.5H20V18C20 17.45 19.55 17 19 17C18.45 17 18 17.45 18 18V19.5H17V18C17 16.9 17.9 16 19 16C20.1 16 21 16.9 21 18V19.5Z" fill="#696B6F"/>
<path d="M14.5 29C14.33 29 14.17 28.91 14.07 28.76L11.64 24.71C11.22 24.01 11 23.21 11 22.39L11.02 22.27C11.2 21.56 12.21 18 14 18C14.28 18 14.5 18.22 14.5 18.5C14.5 18.78 14.28 19 14 19C13.28 19 12.39 20.99 12 22.45C12.01 23.06 12.18 23.66 12.5 24.19L14.93 28.24C15.07 28.48 15 28.78 14.76 28.93C14.68 28.98 14.59 29 14.5 29Z" fill="#696B6F"/>
<path d="M23.5 20C23.22 20 23 19.78 23 19.5V18C23 17.45 22.55 17 22 17C21.45 17 21 17.45 21 18V19.5C21 19.78 20.78 20 20.5 20C20.22 20 20 19.78 20 19.5V18C20 16.9 20.9 16 22 16C23.1 16 24 16.9 24 18V19.5C24 19.78 23.78 20 23.5 20Z" fill="#696B6F"/>
<path d="M26 29C26 29 25.97 29 25.95 29C25.68 28.97 25.47 28.73 25.5 28.45L26 23.45V18C26 17.45 25.55 17 25 17C24.45 17 24 17.45 24 18V19.5C24 19.78 23.78 20 23.5 20C23.22 20 23 19.78 23 19.5V18C23 16.9 23.9 16 25 16C26.1 16 27 16.9 27 18V23.5L26.5 28.55C26.47 28.81 26.26 29 26 29Z" fill="#696B6F"/>
</svg>
