<svg width="26" height="26" viewBox="0 0 26 26" fill="none" xmlns="http://www.w3.org/2000/svg">
<path d="M18.5 26H1.5C0.67 26 0 25.33 0 24.5V1.5C0 0.67 0.67 0 1.5 0H11.67C12.34 0 12.97 0.26 13.44 0.73L17.27 4.56C17.74 5.03 18 5.67 18 6.33L17.96 11.5H16.96L17 6.32C17 5.92 16.85 5.54 16.56 5.26L12.73 1.43C12.45 1.15 12.07 0.99 11.67 0.99H1.5C1.22 0.99 1 1.21 1 1.49V24.5C1 24.78 1.22 25 1.5 25H18.5V26Z" fill="#696B6F"/>
<path d="M17.5 6H12.5C12.22 6 12 5.78 12 5.5V0.5H13V5H17.5V6Z" fill="#696B6F"/>
<path d="M12.5 12H3.5C3.22 12 3 11.78 3 11.5C3 11.22 3.22 11 3.5 11H12.5C12.78 11 13 11.22 13 11.5C13 11.78 12.78 12 12.5 12Z" fill="#696B6F"/>
<path d="M9.5 9H3.5C3.22 9 3 8.78 3 8.5C3 8.22 3.22 8 3.5 8H9.5C9.78 8 10 8.22 10 8.5C10 8.78 9.78 9 9.5 9Z" fill="#696B6F"/>
<path d="M9.5 6H3.5C3.22 6 3 5.78 3 5.5C3 5.22 3.22 5 3.5 5H9.5C9.78 5 10 5.22 10 5.5C10 5.78 9.78 6 9.5 6Z" fill="#696B6F"/>
<path d="M12.5 15H3.5C3.22 15 3 14.78 3 14.5C3 14.22 3.22 14 3.5 14H12.5C12.78 14 13 14.22 13 14.5C13 14.78 12.78 15 12.5 15Z" fill="#696B6F"/>
<path d="M11.5 18H3.5C3.22 18 3 17.78 3 17.5C3 17.22 3.22 17 3.5 17H11.5C11.78 17 12 17.22 12 17.5C12 17.78 11.78 18 11.5 18Z" fill="#696B6F"/>
<path d="M11.5 21H3.5C3.22 21 3 20.78 3 20.5C3 20.22 3.22 20 3.5 20H11.5C11.78 20 12 20.22 12 20.5C12 20.78 11.78 21 11.5 21Z" fill="#696B6F"/>
<path d="M18.5 26C14.36 26 11 22.64 11 18.5C11 14.36 14.36 11 18.5 11C22.64 11 26 14.36 26 18.5C26 22.64 22.64 26 18.5 26ZM18.5 12C14.92 12 12 14.92 12 18.5C12 22.08 14.92 25 18.5 25C22.08 25 25 22.08 25 18.5C25 14.92 22.08 12 18.5 12Z" fill="#696B6F"/>
<path d="M18 22.9999C17.9 22.9999 17.8 22.9699 17.71 22.9099L14.21 20.4099C14.08 20.3199 14 20.1599 14 19.9999V17.4999C14 17.3099 14.1 17.1399 14.27 17.0599C14.44 16.9699 14.64 16.9899 14.79 17.0999L17.95 19.3499L22.15 15.1499C22.29 15.0099 22.51 14.9599 22.69 15.0399C22.88 15.1199 23 15.2999 23 15.4999V18.4999C23 18.6399 22.94 18.7799 22.83 18.8699L18.33 22.8699C18.24 22.9499 18.12 22.9999 18 22.9999V22.9999ZM15 19.7399L17.97 21.8599L22 18.2699V16.6999L18.35 20.3499C18.18 20.5199 17.9 20.5399 17.71 20.3999L15 18.4599V19.7299V19.7399Z" fill="#696B6F"/>
</svg>
