<svg width="26" height="27" viewBox="0 0 26 27" fill="none" xmlns="http://www.w3.org/2000/svg">
<g clip-path="url(#clip0_2101_9899)">
<path d="M18.6002 26.1201H7.40021C6.07021 26.1201 4.97021 25.0801 4.90021 23.7501L3.97021 6.12012H22.0302L21.1002 23.7501C21.0302 25.0801 19.9302 26.1201 18.6002 26.1201ZM5.03021 7.12012L5.90021 23.7001C5.94021 24.5001 6.60021 25.1201 7.40021 25.1201H18.6102C19.4102 25.1201 20.0702 24.5001 20.1102 23.7001L20.9802 7.12012H5.03021Z" fill="#696B6F"/>
<path d="M22 7.12012H4C2.9 7.12012 2 6.22012 2 5.12012C2 4.02012 2.9 3.12012 4 3.12012H22C23.1 3.12012 24 4.02012 24 5.12012C24 6.22012 23.1 7.12012 22 7.12012ZM4 4.12012C3.45 4.12012 3 4.57012 3 5.12012C3 5.67012 3.45 6.12012 4 6.12012H22C22.55 6.12012 23 5.67012 23 5.12012C23 4.57012 22.55 4.12012 22 4.12012H4Z" fill="#696B6F"/>
<path d="M18 4.12012H8V2.62012C8 1.24012 9.12 0.120117 10.5 0.120117H15.5C16.88 0.120117 18 1.24012 18 2.62012V4.12012ZM9 3.12012H17V2.62012C17 1.79012 16.33 1.12012 15.5 1.12012H10.5C9.67 1.12012 9 1.79012 9 2.62012V3.12012Z" fill="#696B6F"/>
<path d="M11.5 23.1201C11.22 23.1201 11 22.9001 11 22.6201V9.62012C11 9.34012 11.22 9.12012 11.5 9.12012C11.78 9.12012 12 9.34012 12 9.62012V22.6201C12 22.9001 11.78 23.1201 11.5 23.1201Z" fill="#696B6F"/>
<path d="M8.5 23.1201C8.22 23.1201 8 22.9001 8 22.6201V9.62012C8 9.34012 8.22 9.12012 8.5 9.12012C8.78 9.12012 9 9.34012 9 9.62012V22.6201C9 22.9001 8.78 23.1201 8.5 23.1201Z" fill="#696B6F"/>
<path d="M14.5 23.1201C14.22 23.1201 14 22.9001 14 22.6201V9.62012C14 9.34012 14.22 9.12012 14.5 9.12012C14.78 9.12012 15 9.34012 15 9.62012V22.6201C15 22.9001 14.78 23.1201 14.5 23.1201Z" fill="#696B6F"/>
<path d="M17.5 23.1201C17.22 23.1201 17 22.9001 17 22.6201V9.62012C17 9.34012 17.22 9.12012 17.5 9.12012C17.78 9.12012 18 9.34012 18 9.62012V22.6201C18 22.9001 17.78 23.1201 17.5 23.1201Z" fill="#696B6F"/>
</g>
<defs>
<clipPath id="clip0_2101_9899">
<rect width="22" height="26" fill="white" transform="translate(2 0.120117)"/>
</clipPath>
</defs>
</svg>
