<svg width="32" height="30" viewBox="0 0 32 30" fill="none" xmlns="http://www.w3.org/2000/svg">
<path d="M14.5 27H2.5C1.12 27 0 25.88 0 24.5V3.5C0 2.12 1.12 1 2.5 1H14.5C15.88 1 17 2.12 17 3.5C17 3.78 16.78 4 16.5 4C16.22 4 16 3.78 16 3.5C16 2.67 15.33 2 14.5 2H2.5C1.67 2 1 2.67 1 3.5V24.5C1 25.33 1.67 26 2.5 26H14.5C14.78 26 15 26.22 15 26.5C15 26.78 14.78 27 14.5 27Z" fill="#696B6F"/>
<path d="M29.5 29H16.5C15.12 29 14 27.88 14 26.5V5.5C14 4.12 15.12 3 16.5 3H29.5C30.88 3 32 4.12 32 5.5V26.5C32 27.88 30.88 29 29.5 29ZM16.5 4C15.67 4 15 4.67 15 5.5V26.5C15 27.33 15.67 28 16.5 28H29.5C30.33 28 31 27.33 31 26.5V5.5C31 4.67 30.33 4 29.5 4H16.5Z" fill="#696B6F"/>
<path d="M28.5 24H17.5C17.22 24 17 23.78 17 23.5C17 23.22 17.22 23 17.5 23H28.5C28.78 23 29 23.22 29 23.5C29 23.78 28.78 24 28.5 24Z" fill="#696B6F"/>
<path d="M28.5 21H17.5C17.22 21 17 20.78 17 20.5C17 20.22 17.22 20 17.5 20H28.5C28.78 20 29 20.22 29 20.5C29 20.78 28.78 21 28.5 21Z" fill="#696B6F"/>
<path d="M28.5 18H17.5C17.22 18 17 17.78 17 17.5C17 17.22 17.22 17 17.5 17H28.5C28.78 17 29 17.22 29 17.5C29 17.78 28.78 18 28.5 18Z" fill="#696B6F"/>
<path d="M28.5 15H17.5C17.22 15 17 14.78 17 14.5C17 14.22 17.22 14 17.5 14H28.5C28.78 14 29 14.22 29 14.5C29 14.78 28.78 15 28.5 15Z" fill="#696B6F"/>
<path d="M14.5 22H3.5C3.22 22 3 21.78 3 21.5C3 21.22 3.22 21 3.5 21H14.5C14.78 21 15 21.22 15 21.5C15 21.78 14.78 22 14.5 22Z" fill="#696B6F"/>
<path d="M14.5 19H3.5C3.22 19 3 18.78 3 18.5C3 18.22 3.22 18 3.5 18H14.5C14.78 18 15 18.22 15 18.5C15 18.78 14.78 19 14.5 19Z" fill="#696B6F"/>
<path d="M14.5 16H3.5C3.22 16 3 15.78 3 15.5C3 15.22 3.22 15 3.5 15H14.5C14.78 15 15 15.22 15 15.5C15 15.78 14.78 16 14.5 16Z" fill="#696B6F"/>
<path d="M14.5 13H3.5C3.22 13 3 12.78 3 12.5C3 12.22 3.22 12 3.5 12H14.5C14.78 12 15 12.22 15 12.5C15 12.78 14.78 13 14.5 13Z" fill="#696B6F"/>
<path d="M14.5 8H3.5C3.22 8 3 7.78 3 7.5C3 7.22 3.22 7 3.5 7H14.5C14.78 7 15 7.22 15 7.5C15 7.78 14.78 8 14.5 8Z" fill="#696B6F"/>
<path d="M28.5 10H17.5C17.22 10 17 9.78 17 9.5C17 9.22 17.22 9 17.5 9H28.5C28.78 9 29 9.22 29 9.5C29 9.78 28.78 10 28.5 10Z" fill="#696B6F"/>
</svg>
