<svg width="26" height="26" viewBox="0 0 26 26" fill="none" xmlns="http://www.w3.org/2000/svg">
<path d="M23.5 26H2.5C1.12 26 0 24.88 0 23.5V15C0 13.9 0.9 13 2 13C3.1 13 4 13.9 4 15V22H22V15C22 13.9 22.9 13 24 13C25.1 13 26 13.9 26 15V23.5C26 24.88 24.88 26 23.5 26ZM2 14C1.45 14 1 14.45 1 15V23.5C1 24.33 1.67 25 2.5 25H23.5C24.33 25 25 24.33 25 23.5V15C25 14.45 24.55 14 24 14C23.45 14 23 14.45 23 15V22.5C23 22.78 22.78 23 22.5 23H3.5C3.22 23 3 22.78 3 22.5V15C3 14.45 2.55 14 2 14Z" fill="#696B6F"/>
<path d="M13 1C13.55 1 14 1.45 14 2V13.38C14 13.68 14.25 13.88 14.5 13.88C14.62 13.88 14.75 13.83 14.85 13.73L16.29 12.29C16.49 12.09 16.74 12 17 12C17.26 12 17.51 12.1 17.71 12.29C18.1 12.68 18.1 13.31 17.71 13.7L13.71 17.7C13.62 17.79 13.51 17.87 13.38 17.92C13.26 17.97 13.13 18 13 18C12.87 18 12.74 17.97 12.62 17.92C12.5 17.87 12.39 17.8 12.29 17.7L8.29 13.7C7.9 13.31 7.9 12.68 8.29 12.29C8.49 12.09 8.74 12 9 12C9.26 12 9.51 12.1 9.71 12.29L11.15 13.73C11.25 13.83 11.38 13.88 11.5 13.88C11.76 13.88 12 13.68 12 13.38V2C12 1.45 12.45 1 13 1ZM13 0C11.9 0 11 0.9 11 2V12.17L10.41 11.58C10.03 11.2 9.53 10.99 9 10.99C8.47 10.99 7.96 11.2 7.59 11.58C7.22 11.96 7 12.46 7 12.99C7 13.52 7.21 14.03 7.59 14.4L11.59 18.4C11.77 18.59 11.99 18.73 12.24 18.83C12.49 18.93 12.74 18.98 13.01 18.98C13.28 18.98 13.53 18.93 13.77 18.83C14.02 18.73 14.23 18.58 14.42 18.4L18.42 14.4C18.8 14.02 19.01 13.52 19.01 12.99C19.01 12.46 18.8 11.95 18.42 11.58C18.04 11.21 17.54 10.99 17.01 10.99C16.48 10.99 15.97 11.2 15.6 11.58L15.01 12.17V2C15.01 0.9 14.11 0 13.01 0H13Z" fill="#696B6F"/>
</svg>
