<svg width="30" height="30" viewBox="0 0 30 30" fill="none" xmlns="http://www.w3.org/2000/svg">
<g clip-path="url(#clip0_800_3051)">
<path d="M20.66 22.5C20.51 22.5 20.37 22.44 20.27 22.31C20.1 22.1 20.13 21.78 20.34 21.61C22.35 19.99 23.5 17.58 23.5 15C23.5 10.31 19.69 6.49999 15 6.49999C10.31 6.49999 6.5 10.31 6.5 15C6.5 17.58 7.65 19.99 9.66 21.61C9.87 21.78 9.91 22.1 9.73 22.31C9.56 22.52 9.24 22.56 9.03 22.38C6.79 20.57 5.5 17.87 5.5 14.99C5.5 9.74999 9.76 5.48999 15 5.48999C20.24 5.48999 24.5 9.74999 24.5 14.99C24.5 17.87 23.21 20.56 20.97 22.38C20.88 22.45 20.77 22.49 20.66 22.49V22.5Z" fill="#C41D39"/>
<path d="M7.45 27.69C7.27 27.69 7.1 27.6 7.01 27.43C6.77 27.01 6.55 26.57 6.34 26.14C6.12 25.7 5.9 25.25 5.65 24.82C5.52 24.59 5.3 24.37 5.07 24.24C4.23 23.77 3.35 23.34 2.53 22.96C2 22.71 1.77 22.32 1.81 21.75C1.88 20.82 1.95 19.83 1.96 18.84C1.96 18.58 1.88 18.28 1.74 18.05C1.49 17.63 1.21 17.21 0.94 16.8C0.67 16.39 0.4 15.99 0.15 15.57C-0.05 15.24 -0.05 14.69 0.15 14.35C0.4 13.93 0.67 13.53 0.94 13.12C1.21 12.71 1.49 12.29 1.74 11.87C1.88 11.64 1.96 11.34 1.96 11.08C1.96 10.07 1.88 9.04002 1.81 8.17002C1.76 7.60002 1.99 7.21002 2.53 6.96002C3.59 6.46002 4.39 6.05002 5.13 5.64002C5.32 5.53002 5.52 5.34002 5.62 5.15002C5.86 4.72002 6.08 4.29002 6.29 3.85002C6.52 3.39002 6.75 2.93002 7 2.48002C7.21 2.11002 7.68 1.89002 8.02 1.87002C8.43 1.85002 8.82 1.87002 9.28 1.90002L9.91 1.93002C9.91 1.93002 10 1.94002 10.05 1.96002C10.88 2.24002 11.78 1.98002 12.86 1.13002L13.11 0.930016C13.66 0.510016 14.28 1.59823e-05 14.96 1.59823e-05C15.65 -0.029984 16.25 0.520016 16.79 0.980016L17.01 1.17002C17.91 1.92002 18.87 2.18002 20.03 1.98002L20.19 1.95002C20.89 1.83002 21.76 1.67002 22.39 2.03002C23 2.38002 23.29 3.14002 23.54 3.82002L23.62 4.03002C24.06 5.19002 24.78 5.90002 25.87 6.28002C26.12 6.37002 26.34 6.49002 26.55 6.61002C26.72 6.70002 26.88 6.80002 27.06 6.86002C28.06 7.21002 28.09 7.98002 28.03 8.54002C27.94 9.35002 27.89 10.22 27.88 11.18C27.88 11.39 27.95 11.65 28.07 11.85C28.53 12.61 29.06 13.41 29.67 14.29C30 14.77 30 15.21 29.67 15.7C29.21 16.36 28.61 17.22 28.07 18.14C27.95 18.34 27.88 18.62 27.88 18.87C27.89 19.8 27.95 20.73 28.04 21.65C28.13 22.53 27.61 22.87 27.21 23.06C26.39 23.43 25.55 23.86 24.73 24.32C24.54 24.43 24.34 24.62 24.24 24.81C23.83 25.54 23.42 26.34 22.92 27.41C22.8 27.66 22.5 27.76 22.25 27.65C22 27.53 21.89 27.23 22.01 26.98C22.53 25.9 22.94 25.08 23.36 24.32C23.55 23.97 23.88 23.64 24.24 23.44C25.09 22.97 25.95 22.53 26.79 22.14C27.05 22.02 27.07 21.98 27.04 21.75C26.94 20.81 26.89 19.85 26.87 18.89C26.87 18.46 26.99 17.99 27.2 17.63C27.76 16.69 28.37 15.8 28.84 15.14C28.91 15.04 28.91 15.01 28.91 15C28.91 15 28.91 14.96 28.84 14.88C28.21 13.98 27.67 13.17 27.2 12.39C26.98 12.03 26.86 11.59 26.86 11.19C26.87 10.19 26.92 9.29002 27.02 8.45002C27.07 7.99002 26.99 7.93002 26.71 7.83002C26.48 7.75002 26.26 7.63002 26.04 7.51002C25.87 7.42002 25.7 7.32002 25.52 7.26002C24.14 6.79002 23.2 5.86002 22.66 4.42002L22.58 4.21002C22.41 3.74002 22.17 3.10002 21.87 2.94002C21.56 2.76002 20.85 2.89002 20.34 2.98002L20.17 3.01002C18.72 3.26002 17.46 2.93002 16.34 1.99002L16.11 1.79002C15.75 1.48002 15.25 1.05002 14.94 1.05002C14.6 1.05002 14.11 1.45002 13.72 1.77002L13.45 1.99002C12.13 3.03002 10.92 3.36002 9.78 3.00002C9.57 2.99002 9.38 2.98002 9.2 2.97002C8.75 2.94002 8.4 2.92002 8.05 2.94002C8 2.94002 7.87 3.01002 7.84 3.05002C7.6 3.48002 7.38 3.92002 7.15 4.37002C6.92 4.82002 6.7 5.27002 6.46 5.71002C6.27 6.06002 5.94 6.39002 5.58 6.59002C4.82 7.01002 4 7.43002 2.92 7.94002C2.81333 7.99335 2.76333 8.07002 2.77 8.17002C2.84 9.06002 2.91 10.11 2.92 11.15C2.92 11.59 2.79 12.07 2.56 12.46C2.3 12.9 2.01 13.33 1.73 13.75C1.47 14.14 1.21 14.54 0.96 14.94C0.95 14.97 0.95 15.09 0.96 15.13C1.2 15.52 1.46 15.92 1.72 16.31C2 16.74 2.29 17.16 2.55 17.6C2.78 17.98 2.91 18.47 2.91 18.91C2.91 19.93 2.83 20.95 2.76 21.89C2.75333 21.99 2.80333 22.0667 2.91 22.12C3.75 22.51 4.65 22.95 5.52 23.43C5.9 23.65 6.26 24 6.48 24.39C6.73 24.84 6.96 25.29 7.19 25.75C7.4 26.17 7.61 26.59 7.84 27C7.97 27.24 7.89 27.55 7.65 27.68C7.57 27.72 7.49 27.74 7.41 27.74L7.45 27.69Z" fill="#C41D39"/>
<path d="M14.9999 29.86C14.8799 29.86 14.7699 29.82 14.6699 29.74L10.1699 25.88C10.0099 25.74 9.94991 25.52 10.0299 25.33C10.0999 25.13 10.2899 25 10.4999 25H11.9999V17.5C11.9999 17.22 12.2199 17 12.4999 17H17.4999C17.7799 17 17.9999 17.22 17.9999 17.5V25H19.4999C19.7099 25 19.8999 25.13 19.9699 25.33C20.0399 25.53 19.9899 25.75 19.8299 25.88L15.3299 29.74C15.2399 29.82 15.1199 29.86 14.9999 29.86ZM11.8499 26L14.9999 28.7L18.1499 26H17.4999C17.2199 26 16.9999 25.78 16.9999 25.5V18H12.9999V25.5C12.9999 25.78 12.7799 26 12.4999 26H11.8499Z" fill="#C41D39"/>
<path d="M18.5 15H11.5C11.22 15 11 14.78 11 14.5C11 14.22 11.22 14 11.5 14H18.5C18.78 14 19 14.22 19 14.5C19 14.78 18.78 15 18.5 15Z" fill="#C41D39"/>
<path d="M19.5 12H10.5C10.22 12 10 11.78 10 11.5C10 11.22 10.22 11 10.5 11H19.5C19.78 11 20 11.22 20 11.5C20 11.78 19.78 12 19.5 12Z" fill="#C41D39"/>
</g>
<defs>
<clipPath id="clip0_800_3051">
<rect width="29.93" height="29.86" fill="white"/>
</clipPath>
</defs>
</svg>
