<svg width="21" height="21" viewBox="0 0 21 21" fill="none" xmlns="http://www.w3.org/2000/svg">
<path d="M0.498505 20.4999C0.368505 20.4999 0.238504 20.4499 0.148504 20.3499C0.0285045 20.2299 -0.0214954 20.0699 0.00850462 19.9099L0.958505 14.5199C1.0485 14.0099 1.2885 13.5499 1.6485 13.1899L13.5785 1.25994C15.0885 -0.250059 17.7285 -0.250059 19.2385 1.25994C19.9985 2.01994 20.4085 3.01994 20.4085 4.08994C20.4085 5.15994 19.9885 6.15994 19.2385 6.91994L7.3085 18.8499C6.9485 19.2099 6.4785 19.4499 5.9785 19.5399L0.588505 20.4899C0.588505 20.4899 0.528505 20.4899 0.498505 20.4899V20.4999ZM16.4085 1.08994C15.6085 1.08994 14.8585 1.39994 14.2885 1.96994L2.3585 13.8999C2.1385 14.1199 1.9985 14.3999 1.9385 14.6999L1.1085 19.3899L5.7985 18.5599C6.09851 18.5099 6.3785 18.3599 6.5985 18.1399L18.5285 6.20994C19.0985 5.63994 19.4085 4.88994 19.4085 4.08994C19.4085 3.28994 19.0985 2.53994 18.5285 1.96994C17.9585 1.39994 17.2085 1.08994 16.4085 1.08994Z" fill="#696B6F"/>
<path d="M13.2237 2.32439L12.5166 3.03149L17.4663 7.98124L18.1735 7.27414L13.2237 2.32439Z" fill="#696B6F"/>
<path d="M2.61336 12.9291L1.90625 13.6362L6.856 18.586L7.5631 17.8789L2.61336 12.9291Z" fill="#696B6F"/>
</svg>
