<svg width="27" height="26" viewBox="0 0 27 26" fill="none" xmlns="http://www.w3.org/2000/svg">
<g clip-path="url(#clip0_1353_8766)">
<path d="M6.58981 20.3901C6.45981 20.3901 6.32981 20.3401 6.23981 20.2401C6.11981 20.1201 6.06981 19.9601 6.09981 19.8001L7.04981 14.4101C7.13981 13.9001 7.37981 13.4401 7.73981 13.0801L19.6698 1.15008C21.1798 -0.359922 23.8198 -0.359922 25.3298 1.15008C26.0898 1.91008 26.4998 2.91008 26.4998 3.98008C26.4998 5.05008 26.0798 6.05008 25.3298 6.81008L13.3998 18.7401C13.0398 19.1001 12.5698 19.3401 12.0698 19.4301L6.67981 20.3801C6.67981 20.3801 6.61981 20.3801 6.58981 20.3801V20.3901ZM22.4998 0.980078C21.6998 0.980078 20.9498 1.29008 20.3798 1.86008L8.44981 13.7901C8.22981 14.0101 8.08981 14.2901 8.02981 14.5901L7.19981 19.2801L11.8898 18.4501C12.1898 18.4001 12.4698 18.2501 12.6898 18.0301L24.6198 6.10008C25.1898 5.53008 25.4998 4.78008 25.4998 3.98008C25.4998 3.18008 25.1898 2.43008 24.6198 1.86008C24.0498 1.29008 23.2998 0.980078 22.4998 0.980078Z" fill="#696B6F"/>
<path d="M19.315 2.21452L18.6079 2.92163L23.5577 7.87138L24.2648 7.16427L19.315 2.21452Z" fill="#696B6F"/>
<path d="M8.70515 12.8193L7.99805 13.5264L12.9478 18.4761L13.6549 17.769L8.70515 12.8193Z" fill="#696B6F"/>
<path d="M21 25.98H3C1.62 25.98 0.5 24.86 0.5 23.48V5.47998C0.5 4.09998 1.62 2.97998 3 2.97998H13C13.28 2.97998 13.5 3.19998 13.5 3.47998C13.5 3.75998 13.28 3.97998 13 3.97998H3C2.17 3.97998 1.5 4.64998 1.5 5.47998V23.48C1.5 24.31 2.17 24.98 3 24.98H21C21.83 24.98 22.5 24.31 22.5 23.48V14.48C22.5 14.2 22.72 13.98 23 13.98C23.28 13.98 23.5 14.2 23.5 14.48V23.48C23.5 24.86 22.38 25.98 21 25.98Z" fill="#696B6F"/>
</g>
<defs>
<clipPath id="clip0_1353_8766">
<rect width="26" height="25.96" fill="white" transform="translate(0.5 0.0200195)"/>
</clipPath>
</defs>
</svg>
