<svg width="24" height="25" viewBox="0 0 24 25" fill="none" xmlns="http://www.w3.org/2000/svg">
<path d="M0 12.7C0 6.07253 5.37258 0.699951 12 0.699951V0.699951C18.6274 0.699951 24 6.07253 24 12.7V12.7C24 19.3274 18.6274 24.7 12 24.7V24.7C5.37258 24.7 0 19.3274 0 12.7V12.7Z" fill="#D0D0D0"/>
<g clip-path="url(#clip0_2101_10242)">
<path d="M12.5001 15.8239C12.0326 15.8239 11.6501 15.4414 11.6501 14.9739V13.7074C11.6501 13.2399 12.0326 12.8574 12.5001 12.8574C13.3586 12.8574 14.0556 12.1604 14.0556 11.3019C14.0556 10.4434 13.3586 9.74639 12.5001 9.74639C11.6416 9.74639 10.9446 10.4434 10.9446 11.3019C10.9446 11.7694 10.5621 12.1519 10.0946 12.1519C9.62713 12.1519 9.24463 11.7694 9.24463 11.3019C9.24463 9.50839 10.7066 8.04639 12.5001 8.04639C14.2936 8.04639 15.7556 9.50839 15.7556 11.3019C15.7556 12.8064 14.7356 14.0729 13.3501 14.4469V14.9739C13.3501 15.4414 12.9676 15.8239 12.5001 15.8239Z" fill="white"/>
<path d="M12.4999 18.306C12.9693 18.306 13.3499 17.9254 13.3499 17.456C13.3499 16.9865 12.9693 16.606 12.4999 16.606C12.0305 16.606 11.6499 16.9865 11.6499 17.456C11.6499 17.9254 12.0305 18.306 12.4999 18.306Z" fill="white"/>
</g>
<defs>
<clipPath id="clip0_2101_10242">
<rect width="11" height="11" fill="white" transform="translate(7 7.69995)"/>
</clipPath>
</defs>
</svg>
