<svg width="30" height="30" viewBox="0 0 30 30" fill="none" xmlns="http://www.w3.org/2000/svg">
<g clip-path="url(#clip0_803_3073)">
<path d="M15 24.5C9.76 24.5 5.5 20.24 5.5 15C5.5 9.76 9.76 5.5 15 5.5C20.24 5.5 24.5 9.76 24.5 15C24.5 20.24 20.24 24.5 15 24.5ZM15 6.5C10.31 6.5 6.5 10.31 6.5 15C6.5 19.69 10.31 23.5 15 23.5C19.69 23.5 23.5 19.69 23.5 15C23.5 10.31 19.69 6.5 15 6.5Z" fill="#C41D39"/>
<path d="M14.97 29.91H14.96C14.27 29.91 13.66 29.4 13.12 28.96L12.87 28.75C11.79 27.9 10.9 27.64 10.06 27.92C10.02 27.94 9.97005 27.94 9.92005 27.95L9.29005 27.99C8.83005 28.02 8.43005 28.04 8.03005 28.02C7.69005 28 7.21005 27.78 7.01005 27.41C6.76005 26.96 6.53005 26.5 6.30005 26.04C6.08005 25.6 5.86005 25.16 5.62005 24.74C5.52005 24.55 5.32005 24.36 5.13005 24.25C4.39005 23.84 3.59005 23.43 2.53005 22.93C2.00005 22.68 1.77005 22.29 1.81005 21.72C1.88005 20.8 1.95005 19.8 1.96005 18.81C1.96005 18.55 1.88005 18.25 1.74005 18.02C1.25005 17.2 0.170046 15.61 0.160046 15.6C-0.0599538 15.24 -0.0599538 14.7 0.150046 14.36C0.400046 13.94 0.670046 13.54 0.940046 13.14C1.22005 12.73 1.49005 12.31 1.75005 11.89C1.89005 11.66 1.97005 11.36 1.97005 11.1C1.97005 10.1 1.89005 9.11001 1.82005 8.19001C1.77005 7.62001 2.00005 7.23001 2.54005 6.98001C3.60005 6.48001 4.40005 6.07001 5.14005 5.66001C5.33005 5.55001 5.53005 5.36001 5.63005 5.17001C5.87005 4.74001 6.08005 4.31001 6.30005 3.87001C6.53005 3.41001 6.76005 2.95001 7.01005 2.50001C7.22005 2.13001 7.69005 1.91001 8.03005 1.89001C8.44005 1.87001 8.83005 1.89001 9.29005 1.92001C9.49005 1.93001 9.70005 1.94001 9.92005 1.96001C9.97005 1.96001 10.01 1.97001 10.06 1.99001C10.9 2.27001 11.79 2.01001 12.87 1.16001L13.12 0.960013C13.66 0.510013 14.28 1.25526e-05 14.96 1.25526e-05C15.64 -0.0399874 16.25 0.520013 16.79 0.980013L17.01 1.17001C17.91 1.92001 18.87 2.17001 20.03 1.98001L20.19 1.95001C20.89 1.83001 21.76 1.67001 22.39 2.03001C23 2.38001 23.29 3.15001 23.54 3.82001L23.62 4.02001C24.06 5.18001 24.78 5.89001 25.87 6.27001C26.12 6.36001 26.34 6.48001 26.55 6.60001C26.72 6.69001 26.88 6.79001 27.06 6.85001C28.06 7.20001 28.09 7.97001 28.03 8.53001C27.94 9.34001 27.89 10.21 27.88 11.18C27.88 11.39 27.95 11.65 28.07 11.84C28.53 12.6 29.06 13.4 29.67 14.28C30 14.76 30 15.2 29.67 15.69C29.67 15.69 28.56 17.27 28.07 18.09C27.95 18.29 27.87 18.55 27.88 18.75C27.89 19.71 27.94 20.57 28.03 21.4C28.07 21.72 28.18 22.69 27.06 23.08C26.88 23.14 26.72 23.24 26.55 23.33C26.34 23.45 26.12 23.57 25.87 23.66C24.77 24.04 24.06 24.75 23.62 25.91L23.54 26.11C23.29 26.79 23 27.56 22.39 27.91C21.76 28.27 20.89 28.11 20.19 27.99L20.03 27.96C18.87 27.76 17.91 28.01 17.01 28.77L16.79 28.96C16.25 29.42 15.65 29.94 14.97 29.94V29.91ZM10.71 26.82C11.58 26.82 12.5 27.2 13.48 27.97L13.75 28.19C14.14 28.51 14.64 28.91 14.97 28.91C15.28 28.91 15.78 28.48 16.14 28.17L16.37 27.97C17.5 27.03 18.75 26.7 20.2 26.95L20.36 26.98C20.87 27.07 21.57 27.2 21.89 27.02C22.18 26.85 22.42 26.21 22.6 25.74L22.68 25.53C23.23 24.09 24.17 23.17 25.54 22.69C25.72 22.63 25.89 22.53 26.05 22.44C26.27 22.32 26.48 22.2 26.72 22.12C26.99 22.02 27.08 21.95 27.03 21.5C26.93 20.65 26.88 19.75 26.87 18.76C26.87 18.37 26.99 17.92 27.21 17.56C27.72 16.72 28.8 15.17 28.85 15.11C28.92 15.01 28.92 14.98 28.92 14.97C28.92 14.97 28.92 14.93 28.85 14.85C28.22 13.95 27.68 13.14 27.21 12.36C26.99 12 26.87 11.56 26.87 11.16C26.88 10.16 26.93 9.26001 27.03 8.41001C27.08 7.95001 27 7.89001 26.72 7.79001C26.49 7.71001 26.27 7.59001 26.05 7.47001C25.88 7.38001 25.72 7.28001 25.54 7.22001C24.16 6.75001 23.22 5.82001 22.68 4.38001L22.6 4.17001C22.43 3.70001 22.19 3.06001 21.89 2.90001C21.58 2.72001 20.87 2.84001 20.36 2.94001L20.2 2.97001C18.75 3.22001 17.49 2.89001 16.37 1.95001L16.14 1.75001C15.77 1.44001 15.27 1.00001 14.97 1.01001C14.63 1.01001 14.14 1.41001 13.75 1.73001L13.48 1.94001C12.16 2.98001 10.95 3.31001 9.81005 2.95001C9.60005 2.94001 9.41005 2.93001 9.23005 2.92001C8.79005 2.89001 8.43005 2.87001 8.09005 2.89001C8.04005 2.89001 7.91005 2.96001 7.88005 3.00001C7.64005 3.43001 7.42005 3.88001 7.19005 4.32001C6.97005 4.77001 6.74005 5.22001 6.50005 5.66001C6.30005 6.01001 5.98005 6.34001 5.62005 6.54001C4.86005 6.96001 4.04005 7.38001 2.96005 7.89001C2.85338 7.94335 2.80338 8.02001 2.81005 8.12001C2.88005 9.01001 2.95005 10.06 2.96005 11.1C2.96005 11.54 2.83005 12.02 2.60005 12.41C2.34005 12.85 2.05005 13.28 1.77005 13.7C1.51005 14.09 1.25005 14.48 1.00005 14.89C0.990046 14.92 0.990046 15.04 1.00005 15.08C1.02005 15.11 2.08005 16.67 2.59005 17.52C2.82005 17.9 2.95005 18.39 2.95005 18.83C2.95005 19.85 2.87005 20.87 2.80005 21.81C2.79338 21.91 2.84338 21.9867 2.95005 22.04C4.03005 22.55 4.85005 22.97 5.61005 23.39C5.97005 23.59 6.30005 23.92 6.49005 24.27C6.73005 24.71 6.96005 25.16 7.18005 25.61C7.40005 26.06 7.63005 26.5 7.87005 26.94C7.90005 26.97 8.02005 27.03 8.07005 27.04C8.42005 27.06 8.77005 27.04 9.22005 27.01C9.40005 27 9.59005 26.99 9.80005 26.98C10.09 26.89 10.39 26.84 10.7 26.84L10.71 26.82Z" fill="#C41D39"/>
<path d="M19.6199 22.85C18.9399 22.17 17.8899 21.13 17.2799 20.49C17.0999 20.3 17.0399 20.28 16.7799 20.36C14.9699 20.9 13.0599 20.44 11.6699 19.14C10.2899 17.84 9.70994 15.97 10.1299 14.14C10.2099 13.79 10.4899 13.35 10.8699 13.2C11.2999 13.03 11.8099 13.35 12.0199 13.55C12.6899 14.17 13.2799 14.76 13.8199 15.34C14.0199 15.56 14.1699 15.61 14.4499 15.56L14.9599 15.48C15.1799 15.45 15.4099 15.42 15.4699 15.39C15.4399 15.39 15.4599 15.22 15.4799 15.05C15.4999 14.9 15.5299 14.72 15.5699 14.5C15.6299 14.16 15.5699 13.99 15.3499 13.78C14.7999 13.29 14.2899 12.75 13.7899 12.24L13.5499 11.99C13.0699 11.49 13.1099 11.05 13.1699 10.84C13.2399 10.62 13.4499 10.24 14.1399 10.1C16.0999 9.70001 17.8399 10.23 19.1599 11.65C20.5199 13.11 20.9299 14.91 20.3399 16.87C20.3066 16.9767 20.3299 17.0667 20.4099 17.14C20.9999 17.71 21.5799 18.29 22.1599 18.87L22.8699 19.58L22.1599 20.29L21.4499 19.58C20.8799 19 20.2999 18.43 19.7199 17.86C19.3299 17.49 19.2299 17.1 19.3899 16.58C19.8799 14.96 19.5499 13.53 18.4299 12.33C17.3399 11.16 15.9599 10.74 14.3399 11.08C14.2299 11.1 14.1599 11.13 14.1299 11.15C14.1499 11.15 14.1899 11.22 14.2699 11.29L14.5099 11.54C14.9899 12.04 15.4999 12.57 16.0199 13.04C16.4999 13.48 16.6699 14 16.5499 14.67C16.5099 14.88 16.4899 15.05 16.4699 15.19C16.3199 16.2 16.0899 16.32 15.0999 16.47L14.5999 16.55C13.9899 16.65 13.4999 16.48 13.0799 16.02C12.5599 15.46 11.9899 14.89 11.3299 14.29C11.2899 14.25 11.2299 14.22 11.1799 14.19C11.1499 14.24 11.1099 14.31 11.0899 14.37C10.7499 15.85 11.2199 17.37 12.3399 18.42C13.4599 19.48 15.0099 19.85 16.4799 19.41C17.0899 19.23 17.5499 19.35 17.9899 19.81C18.5999 20.45 19.6399 21.48 20.3099 22.15L19.6099 22.86L19.6199 22.85Z" fill="#C41D39"/>
</g>
<defs>
<clipPath id="clip0_803_3073">
<rect width="29.93" height="29.91" fill="white"/>
</clipPath>
</defs>
</svg>
