<svg width="32" height="32" viewBox="0 0 32 32" fill="none" xmlns="http://www.w3.org/2000/svg">
<path d="M28.5 30H3.5C2.67 30 2 29.33 2 28.5V22.5C2 21.67 2.67 21 3.5 21H28.5C29.33 21 30 21.67 30 22.5V28.5C30 29.33 29.33 30 28.5 30ZM3.5 22C3.22 22 3 22.22 3 22.5V28.5C3 28.78 3.22 29 3.5 29H28.5C28.78 29 29 28.78 29 28.5V22.5C29 22.22 28.78 22 28.5 22H3.5Z" fill="#696B6F"/>
<path d="M29.44 26H16.5C16.22 26 16 25.78 16 25.5C16 25.22 16.22 25 16.5 25H29.44C29.72 25 29.94 25.22 29.94 25.5C29.94 25.78 29.72 26 29.44 26Z" fill="#696B6F"/>
<path d="M10.5 26H9.5C9.22 26 9 25.78 9 25.5C9 25.22 9.22 25 9.5 25H10.5C10.78 25 11 25.22 11 25.5C11 25.78 10.78 26 10.5 26Z" fill="#696B6F"/>
<path d="M7.5 26H6.5C6.22 26 6 25.78 6 25.5C6 25.22 6.22 25 6.5 25H7.5C7.78 25 8 25.22 8 25.5C8 25.78 7.78 26 7.5 26Z" fill="#696B6F"/>
<path d="M5.47998 32C5.19998 32 4.97998 31.78 4.97998 31.5V29.67C4.97998 29.39 5.19998 29.17 5.47998 29.17C5.75998 29.17 5.97998 29.39 5.97998 29.67V31.5C5.97998 31.78 5.75998 32 5.47998 32Z" fill="#696B6F"/>
<path d="M26.48 32C26.2 32 25.98 31.78 25.98 31.5V29.67C25.98 29.39 26.2 29.17 26.48 29.17C26.76 29.17 26.98 29.39 26.98 29.67V31.5C26.98 31.78 26.76 32 26.48 32Z" fill="#696B6F"/>
<path d="M28.5 20H3.5C2.67 20 2 19.33 2 18.5V12.5C2 11.67 2.67 11 3.5 11H28.5C29.33 11 30 11.67 30 12.5V18.5C30 19.33 29.33 20 28.5 20ZM3.5 12C3.22 12 3 12.22 3 12.5V18.5C3 18.78 3.22 19 3.5 19H28.5C28.78 19 29 18.78 29 18.5V12.5C29 12.22 28.78 12 28.5 12H3.5Z" fill="#696B6F"/>
<path d="M29.44 16H16.5C16.22 16 16 15.78 16 15.5C16 15.22 16.22 15 16.5 15H29.44C29.72 15 29.94 15.22 29.94 15.5C29.94 15.78 29.72 16 29.44 16Z" fill="#696B6F"/>
<path d="M10.5 16H9.5C9.22 16 9 15.78 9 15.5C9 15.22 9.22 15 9.5 15H10.5C10.78 15 11 15.22 11 15.5C11 15.78 10.78 16 10.5 16Z" fill="#696B6F"/>
<path d="M7.5 16H6.5C6.22 16 6 15.78 6 15.5C6 15.22 6.22 15 6.5 15H7.5C7.78 15 8 15.22 8 15.5C8 15.78 7.78 16 7.5 16Z" fill="#696B6F"/>
<path d="M5.47998 22C5.19998 22 4.97998 21.78 4.97998 21.5V19.67C4.97998 19.39 5.19998 19.17 5.47998 19.17C5.75998 19.17 5.97998 19.39 5.97998 19.67V21.5C5.97998 21.78 5.75998 22 5.47998 22Z" fill="#696B6F"/>
<path d="M26.48 22C26.2 22 25.98 21.78 25.98 21.5V19.67C25.98 19.39 26.2 19.17 26.48 19.17C26.76 19.17 26.98 19.39 26.98 19.67V21.5C26.98 21.78 26.76 22 26.48 22Z" fill="#696B6F"/>
<path d="M28.5 10H3.5C2.67 10 2 9.33 2 8.5V2.5C2 1.67 2.67 1 3.5 1H28.5C29.33 1 30 1.67 30 2.5V8.5C30 9.33 29.33 10 28.5 10ZM3.5 2C3.22 2 3 2.22 3 2.5V8.5C3 8.78 3.22 9 3.5 9H28.5C28.78 9 29 8.78 29 8.5V2.5C29 2.22 28.78 2 28.5 2H3.5Z" fill="#696B6F"/>
<path d="M29.44 6H16.5C16.22 6 16 5.78 16 5.5C16 5.22 16.22 5 16.5 5H29.44C29.72 5 29.94 5.22 29.94 5.5C29.94 5.78 29.72 6 29.44 6Z" fill="#696B6F"/>
<path d="M10.5 6H9.5C9.22 6 9 5.78 9 5.5C9 5.22 9.22 5 9.5 5H10.5C10.78 5 11 5.22 11 5.5C11 5.78 10.78 6 10.5 6Z" fill="#696B6F"/>
<path d="M7.5 6H6.5C6.22 6 6 5.78 6 5.5C6 5.22 6.22 5 6.5 5H7.5C7.78 5 8 5.22 8 5.5C8 5.78 7.78 6 7.5 6Z" fill="#696B6F"/>
<path d="M5.47998 12C5.19998 12 4.97998 11.78 4.97998 11.5V9.67001C4.97998 9.39001 5.19998 9.17001 5.47998 9.17001C5.75998 9.17001 5.97998 9.39001 5.97998 9.67001V11.5C5.97998 11.78 5.75998 12 5.47998 12Z" fill="#696B6F"/>
<path d="M26.48 12C26.2 12 25.98 11.78 25.98 11.5V9.67001C25.98 9.39001 26.2 9.17001 26.48 9.17001C26.76 9.17001 26.98 9.39001 26.98 9.67001V11.5C26.98 11.78 26.76 12 26.48 12Z" fill="#696B6F"/>
</svg>
