<svg width="29" height="30" viewBox="0 0 29 30" fill="none" xmlns="http://www.w3.org/2000/svg">
<g clip-path="url(#clip0_803_3088)">
<path d="M25.1299 23H14.1299C13.8499 23 13.6299 22.78 13.6299 22.5C13.6299 22.22 13.8499 22 14.1299 22H25.1299C25.4099 22 25.6299 22.22 25.6299 22.5C25.6299 22.78 25.4099 23 25.1299 23Z" fill="#C41D39"/>
<path d="M10.1499 16.64C6.56991 16.64 3.65991 13.73 3.65991 10.15C3.65991 6.56997 6.56991 3.65997 10.1499 3.65997C13.7299 3.65997 16.6399 6.56997 16.6399 10.15C16.6399 13.73 13.7299 16.64 10.1499 16.64ZM10.1499 4.65997C7.11991 4.65997 4.65991 7.11997 4.65991 10.15C4.65991 13.18 7.11991 15.64 10.1499 15.64C13.1799 15.64 15.6399 13.18 15.6399 10.15C15.6399 7.11997 13.1799 4.65997 10.1499 4.65997Z" fill="#C41D39"/>
<path d="M10.1299 20.24H10.1199C9.60993 20.24 9.16993 19.88 8.78993 19.57L8.61993 19.44C7.94993 18.92 7.40993 18.75 6.90993 18.92C6.86993 18.93 6.81993 18.94 6.76993 18.95L6.34993 18.97C6.02993 18.99 5.75993 19.01 5.48993 18.99C5.20993 18.97 4.83993 18.8 4.66993 18.5C4.49993 18.2 4.34993 17.89 4.18993 17.58C4.04993 17.29 3.89993 17 3.73993 16.72C3.68993 16.62 3.57993 16.52 3.47993 16.46C2.91993 16.15 2.33993 15.86 1.75993 15.59C1.34993 15.39 1.14993 15.07 1.18993 14.62C1.23993 14.01 1.27993 13.36 1.28993 12.69C1.28993 12.55 1.23993 12.38 1.16993 12.25C0.839929 11.7 0.129929 10.65 0.129929 10.64C-0.0500709 10.34 -0.0500709 9.91001 0.119929 9.64001C0.289929 9.36001 0.469929 9.09001 0.649929 8.82001C0.829929 8.55001 1.00993 8.28001 1.17993 8.00001C1.24993 7.88001 1.29993 7.70001 1.29993 7.56001C1.29993 6.91001 1.24993 6.25001 1.19993 5.64001C1.16993 5.19001 1.35993 4.87001 1.76993 4.67001C2.34993 4.39001 2.92993 4.11001 3.48993 3.80001C3.58993 3.74001 3.69993 3.64001 3.74993 3.54001C3.90993 3.26001 4.04993 2.97001 4.18993 2.68001C4.34993 2.37001 4.49993 2.06001 4.66993 1.76001C4.83993 1.46001 5.20993 1.28001 5.48993 1.27001C5.75993 1.26001 6.02993 1.27001 6.34993 1.29001L6.75993 1.31001C6.75993 1.31001 6.84993 1.32001 6.89993 1.34001C7.39993 1.51001 7.93993 1.34001 8.60993 0.81001L8.77993 0.68001C9.15993 0.37001 9.59993 0.0200098 10.1099 0.0100098H10.1199C10.6299 0.0100098 11.0599 0.38001 11.4399 0.70001L11.5899 0.82001C12.1499 1.29001 12.7499 1.45001 13.4699 1.32001L13.5799 1.30001C14.0699 1.21001 14.6799 1.10001 15.1499 1.37001C15.6099 1.63001 15.8199 2.20001 15.9899 2.65001L16.0399 2.78001C16.3199 3.50001 16.7599 3.94001 17.4399 4.18001C17.6099 4.24001 17.7599 4.32001 17.9199 4.41001C18.0199 4.47001 18.1199 4.53001 18.2299 4.56001C18.8099 4.76001 19.0599 5.20001 18.9899 5.85001C18.9299 6.39001 18.8999 6.96001 18.8899 7.59001C18.8899 7.70001 18.9299 7.84001 18.9899 7.94001C19.3199 8.49001 19.6799 9.02001 20.0499 9.55001C20.3099 9.92001 20.3099 10.3 20.0499 10.68C20.0299 10.7 19.3199 11.72 18.9899 12.27C18.9299 12.38 18.8799 12.52 18.8899 12.62C18.8899 13.25 18.9299 13.82 18.9899 14.36C19.0599 15.02 18.8099 15.45 18.2299 15.65C18.1199 15.69 18.0199 15.75 17.9199 15.8C17.7599 15.89 17.6099 15.97 17.4399 16.03C16.7599 16.26 16.3199 16.71 16.0399 17.43L15.9899 17.57C15.8199 18.02 15.6099 18.59 15.1499 18.85C14.6799 19.12 14.0699 19.01 13.5699 18.92L13.4699 18.9C12.7499 18.78 12.1499 18.93 11.5899 19.4L11.4499 19.52C11.0699 19.85 10.6399 20.21 10.1299 20.21V20.24ZM7.28993 17.85C7.90993 17.85 8.54993 18.12 9.23993 18.65L9.41993 18.8C9.63993 18.98 9.95993 19.24 10.1299 19.24C10.2699 19.24 10.6199 18.95 10.7999 18.79L10.9599 18.66C11.7499 18 12.6299 17.77 13.6499 17.94L13.7599 17.96C14.0399 18.01 14.5099 18.09 14.6699 18C14.8099 17.92 14.9699 17.49 15.0699 17.24L15.1199 17.1C15.4999 16.1 16.1599 15.45 17.1299 15.11C17.2399 15.07 17.3399 15.01 17.4499 14.95C17.5999 14.86 17.7599 14.78 17.9199 14.72C17.9899 14.7 18.0099 14.68 18.0199 14.67C18.0199 14.67 18.0299 14.62 18.0199 14.48C17.9599 13.9 17.9199 13.3 17.9099 12.64C17.9099 12.35 17.9999 12.02 18.1599 11.76C18.5099 11.19 19.2599 10.12 19.2599 10.12L19.2899 10.08C18.8899 9.60001 18.5199 9.04001 18.1699 8.47001C18.0099 8.20001 17.9199 7.88001 17.9199 7.58001C17.9199 6.91001 17.9599 6.31001 18.0299 5.74001C18.0499 5.60001 18.0299 5.55001 18.0299 5.54001C18.0299 5.54001 17.9999 5.52001 17.9399 5.50001C17.7799 5.44001 17.6199 5.36001 17.4699 5.27001C17.3699 5.21001 17.2699 5.15001 17.1599 5.11001C16.1899 4.78001 15.5399 4.13001 15.1499 3.12001L15.0999 2.98001C15.0099 2.73001 14.8499 2.30001 14.6999 2.22001C14.5399 2.13001 14.0799 2.22001 13.7999 2.26001L13.6899 2.28001C12.6699 2.46001 11.7899 2.22001 10.9999 1.56001L10.8399 1.43001C10.6599 1.27001 10.3099 0.98001 10.1699 0.98001C9.99993 0.98001 9.67993 1.25001 9.45993 1.42001L9.27993 1.57001C8.35993 2.29001 7.51993 2.52001 6.69993 2.28001L6.33993 2.26001C6.05993 2.24001 5.81993 2.23001 5.58993 2.24001C5.42993 2.51001 5.27993 2.81001 5.12993 3.10001C4.97993 3.40001 4.82993 3.70001 4.66993 3.99001C4.52993 4.25001 4.27993 4.49001 4.01993 4.64001C3.43993 4.96001 2.83993 5.26001 2.23993 5.54001C2.28993 6.16001 2.32993 6.84001 2.33993 7.53001C2.33993 7.85001 2.24993 8.20001 2.07993 8.49001C1.89993 8.78001 1.70993 9.07001 1.51993 9.36001C1.34993 9.62001 1.16993 9.88001 1.00993 10.14C1.04993 10.16 1.73993 11.18 2.06993 11.72C2.23993 12 2.33993 12.35 2.32993 12.68C2.32993 13.37 2.27993 14.05 2.22993 14.68C2.82993 14.95 3.42993 15.25 4.00993 15.57C4.26993 15.72 4.51993 15.96 4.65993 16.22C4.81993 16.51 4.96993 16.82 5.11993 17.12C5.26993 17.42 5.41993 17.71 5.57993 18C5.80993 18 6.03993 17.98 6.31993 17.96L6.68993 17.94C6.89993 17.88 7.10993 17.85 7.31993 17.85H7.28993Z" fill="#C41D39"/>
<path d="M27 2.97998H15.59C15.74 3.36998 15.95 3.70998 16.21 3.97998H27C27.55 3.97998 28 4.42998 28 4.97998V27.98C28 28.53 27.55 28.98 27 28.98H12C11.45 28.98 11 28.53 11 27.98V19.28C10.72 19.52 10.41 19.75 10.13 19.74C10.09 19.74 10.04 19.72 10 19.71V27.98C10 29.08 10.9 29.98 12 29.98H27C28.1 29.98 29 29.08 29 27.98V4.97998C29 3.87998 28.1 2.97998 27 2.97998Z" fill="#C41D39"/>
<path d="M25.1299 14H18.45C18.47 14.26 18.47 14.53 18.5 14.79C18.5 14.87 18.5 14.93 18.5 15H25.1299C25.4099 15 25.6299 14.78 25.6299 14.5C25.6299 14.22 25.4099 14 25.1299 14Z" fill="#C41D39"/>
<path d="M25.1301 10H19.0801C19.2701 10.29 19.4601 10.59 19.6601 10.88C19.6901 10.93 19.6901 10.96 19.7101 11H25.1401C25.4201 11 25.6401 10.78 25.6401 10.5C25.6401 10.22 25.4201 10 25.1401 10H25.1301Z" fill="#C41D39"/>
<path d="M7.5 13C7.37 13 7.24 12.95 7.15 12.85C6.95 12.65 6.95 12.34 7.15 12.14L12.15 7.13999C12.35 6.93999 12.66 6.93999 12.86 7.13999C13.06 7.33999 13.06 7.64999 12.86 7.84999L7.86 12.85C7.76 12.95 7.63 13 7.51 13H7.5Z" fill="#C41D39"/>
<path d="M25.1299 18H15.2799C15.1799 18.19 15.0599 18.35 14.9099 18.44C14.5899 18.62 14.0699 18.53 13.6399 18.44C13.6399 18.46 13.6299 18.47 13.6299 18.49C13.6299 18.77 13.8499 18.99 14.1299 18.99H25.1299C25.4099 18.99 25.6299 18.77 25.6299 18.49C25.6299 18.21 25.4099 17.99 25.1299 17.99V18Z" fill="#C41D39"/>
<path d="M25.13 9.99999H19.71C19.76 10.14 19.76 10.26 19.65 10.41C19.65 10.41 19.59 10.5 19.5 10.63C19.55 10.71 19.6 10.79 19.66 10.87C19.69 10.92 19.69 10.95 19.71 10.99H25.14C25.42 10.99 25.64 10.77 25.64 10.49C25.64 10.21 25.42 9.98999 25.14 9.98999L25.13 9.99999Z" fill="#C41D39"/>
<path d="M12.5 13C12.37 13 12.24 12.95 12.15 12.85L7.13999 7.84999C6.93999 7.64999 6.93999 7.33999 7.13999 7.13999C7.33999 6.93999 7.64999 6.93999 7.84999 7.13999L12.85 12.14C13.05 12.34 13.05 12.65 12.85 12.85C12.75 12.95 12.62 13 12.5 13Z" fill="#C41D39"/>
</g>
<defs>
<clipPath id="clip0_803_3088">
<rect width="29" height="29.98" fill="white"/>
</clipPath>
</defs>
</svg>
