<svg width="54" height="54" viewBox="0 0 54 54" fill="none" xmlns="http://www.w3.org/2000/svg">
<path d="M27 0C12.09 0 0 12.09 0 27C0 41.91 12.09 54 27 54C41.91 54 54 41.91 54 27C54 12.09 41.91 0 27 0ZM27 53C12.66 53 1 41.34 1 27C1 12.66 12.66 1 27 1C41.34 1 53 12.66 53 27C53 41.34 41.34 53 27 53Z" fill="#C41D39"/>
<g clip-path="url(#clip0_803_3079)">
<path d="M37.1299 36H26.1299C25.8499 36 25.6299 35.78 25.6299 35.5C25.6299 35.22 25.8499 35 26.1299 35H37.1299C37.4099 35 37.6299 35.22 37.6299 35.5C37.6299 35.78 37.4099 36 37.1299 36Z" fill="#C41D39"/>
<path d="M22.1499 29.64C18.5699 29.64 15.6599 26.73 15.6599 23.15C15.6599 19.57 18.5699 16.66 22.1499 16.66C25.7299 16.66 28.6399 19.57 28.6399 23.15C28.6399 26.73 25.7299 29.64 22.1499 29.64ZM22.1499 17.66C19.1199 17.66 16.6599 20.12 16.6599 23.15C16.6599 26.18 19.1199 28.64 22.1499 28.64C25.1799 28.64 27.6399 26.18 27.6399 23.15C27.6399 20.12 25.1799 17.66 22.1499 17.66Z" fill="#C41D39"/>
<path d="M22.1299 33.24H22.1199C21.6099 33.24 21.1699 32.88 20.7899 32.57L20.6199 32.44C19.9499 31.92 19.4099 31.75 18.9099 31.92C18.8699 31.93 18.8199 31.94 18.7699 31.95L18.3499 31.97C18.0299 31.99 17.7599 32.01 17.4899 31.99C17.2099 31.97 16.8399 31.8 16.6699 31.5C16.4999 31.2 16.3499 30.89 16.1899 30.58C16.0499 30.29 15.8999 30 15.7399 29.72C15.6899 29.62 15.5799 29.52 15.4799 29.46C14.9199 29.15 14.3399 28.86 13.7599 28.59C13.3499 28.39 13.1499 28.07 13.1899 27.62C13.2399 27.01 13.2799 26.36 13.2899 25.69C13.2899 25.55 13.2399 25.38 13.1699 25.25C12.8399 24.7 12.1299 23.65 12.1299 23.64C11.9499 23.34 11.9499 22.91 12.1199 22.64C12.2899 22.36 12.4699 22.09 12.6499 21.82C12.8299 21.55 13.0099 21.28 13.1799 21C13.2499 20.88 13.2999 20.7 13.2999 20.56C13.2999 19.91 13.2499 19.25 13.1999 18.64C13.1699 18.19 13.3599 17.87 13.7699 17.67C14.3499 17.39 14.9299 17.11 15.4899 16.8C15.5899 16.74 15.6999 16.64 15.7499 16.54C15.9099 16.26 16.0499 15.97 16.1899 15.68C16.3499 15.37 16.4999 15.06 16.6699 14.76C16.8399 14.46 17.2099 14.28 17.4899 14.27C17.7599 14.26 18.0299 14.27 18.3499 14.29L18.7599 14.31C18.7599 14.31 18.8499 14.32 18.8999 14.34C19.3999 14.51 19.9399 14.34 20.6099 13.81L20.7799 13.68C21.1599 13.37 21.5999 13.02 22.1099 13.01H22.1199C22.6299 13.01 23.0599 13.38 23.4399 13.7L23.5899 13.82C24.1499 14.29 24.7499 14.45 25.4699 14.32L25.5799 14.3C26.0699 14.21 26.6799 14.1 27.1499 14.37C27.6099 14.63 27.8199 15.2 27.9899 15.65L28.0399 15.78C28.3199 16.5 28.7599 16.94 29.4399 17.18C29.6099 17.24 29.7599 17.32 29.9199 17.41C30.0199 17.47 30.1199 17.53 30.2299 17.56C30.8099 17.76 31.0599 18.2 30.9899 18.85C30.9299 19.39 30.8999 19.96 30.8899 20.59C30.8899 20.7 30.9299 20.84 30.9899 20.94C31.3199 21.49 31.6799 22.02 32.0499 22.55C32.3099 22.92 32.3099 23.3 32.0499 23.68C32.0299 23.7 31.3199 24.72 30.9899 25.27C30.9299 25.38 30.8799 25.52 30.8899 25.62C30.8899 26.25 30.9299 26.82 30.9899 27.36C31.0599 28.02 30.8099 28.45 30.2299 28.65C30.1199 28.69 30.0199 28.75 29.9199 28.8C29.7599 28.89 29.6099 28.97 29.4399 29.03C28.7599 29.26 28.3199 29.71 28.0399 30.43L27.9899 30.57C27.8199 31.02 27.6099 31.59 27.1499 31.85C26.6799 32.12 26.0699 32.01 25.5699 31.92L25.4699 31.9C24.7499 31.78 24.1499 31.93 23.5899 32.4L23.4499 32.52C23.0699 32.85 22.6399 33.21 22.1299 33.21V33.24ZM19.2899 30.85C19.9099 30.85 20.5499 31.12 21.2399 31.65L21.4199 31.8C21.6399 31.98 21.9599 32.24 22.1299 32.24C22.2699 32.24 22.6199 31.95 22.7999 31.79L22.9599 31.66C23.7499 31 24.6299 30.77 25.6499 30.94L25.7599 30.96C26.0399 31.01 26.5099 31.09 26.6699 31C26.8099 30.92 26.9699 30.49 27.0699 30.24L27.1199 30.1C27.4999 29.1 28.1599 28.45 29.1299 28.11C29.2399 28.07 29.3399 28.01 29.4499 27.95C29.5999 27.86 29.7599 27.78 29.9199 27.72C29.9899 27.7 30.0099 27.68 30.0199 27.67C30.0199 27.67 30.0299 27.62 30.0199 27.48C29.9599 26.9 29.9199 26.3 29.9099 25.64C29.9099 25.35 29.9999 25.02 30.1599 24.76C30.5099 24.19 31.2599 23.12 31.2599 23.12L31.2899 23.08C30.8899 22.6 30.5199 22.04 30.1699 21.47C30.0099 21.2 29.9199 20.88 29.9199 20.58C29.9199 19.91 29.9599 19.31 30.0299 18.74C30.0499 18.6 30.0299 18.55 30.0299 18.54C30.0299 18.54 29.9999 18.52 29.9399 18.5C29.7799 18.44 29.6199 18.36 29.4699 18.27C29.3699 18.21 29.2699 18.15 29.1599 18.11C28.1899 17.78 27.5399 17.13 27.1499 16.12L27.0999 15.98C27.0099 15.73 26.8499 15.3 26.6999 15.22C26.5399 15.13 26.0799 15.22 25.7999 15.26L25.6899 15.28C24.6699 15.46 23.7899 15.22 22.9999 14.56L22.8399 14.43C22.6599 14.27 22.3099 13.98 22.1699 13.98C21.9999 13.98 21.6799 14.25 21.4599 14.42L21.2799 14.57C20.3599 15.29 19.5199 15.52 18.6999 15.28L18.3399 15.26C18.0599 15.24 17.8199 15.23 17.5899 15.24C17.4299 15.51 17.2799 15.81 17.1299 16.1C16.9799 16.4 16.8299 16.7 16.6699 16.99C16.5299 17.25 16.2799 17.49 16.0199 17.64C15.4399 17.96 14.8399 18.26 14.2399 18.54C14.2899 19.16 14.3299 19.84 14.3399 20.53C14.3399 20.85 14.2499 21.2 14.0799 21.49C13.8999 21.78 13.7099 22.07 13.5199 22.36C13.3499 22.62 13.1699 22.88 13.0099 23.14C13.0499 23.16 13.7399 24.18 14.0699 24.72C14.2399 25 14.3399 25.35 14.3299 25.68C14.3299 26.37 14.2799 27.05 14.2299 27.68C14.8299 27.95 15.4299 28.25 16.0099 28.57C16.2699 28.72 16.5199 28.96 16.6599 29.22C16.8199 29.51 16.9699 29.82 17.1199 30.12C17.2699 30.42 17.4199 30.71 17.5799 31C17.8099 31 18.0399 30.98 18.3199 30.96L18.6899 30.94C18.8999 30.88 19.1099 30.85 19.3199 30.85H19.2899Z" fill="#C41D39"/>
<path d="M39 15.98H27.59C27.74 16.37 27.95 16.71 28.21 16.98H39C39.55 16.98 40 17.43 40 17.98V40.98C40 41.53 39.55 41.98 39 41.98H24C23.45 41.98 23 41.53 23 40.98V32.28C22.72 32.52 22.41 32.75 22.13 32.74C22.09 32.74 22.04 32.72 22 32.71V40.98C22 42.08 22.9 42.98 24 42.98H39C40.1 42.98 41 42.08 41 40.98V17.98C41 16.88 40.1 15.98 39 15.98Z" fill="#C41D39"/>
<path d="M37.1299 27H30.45C30.47 27.26 30.47 27.53 30.5 27.79C30.5 27.87 30.5 27.93 30.5 28H37.1299C37.4099 28 37.6299 27.78 37.6299 27.5C37.6299 27.22 37.4099 27 37.1299 27Z" fill="#C41D39"/>
<path d="M37.1301 23H31.0801C31.2701 23.29 31.4601 23.59 31.6601 23.88C31.6901 23.93 31.6901 23.96 31.7101 24H37.1401C37.4201 24 37.6401 23.78 37.6401 23.5C37.6401 23.22 37.4201 23 37.1401 23H37.1301Z" fill="#C41D39"/>
<path d="M19.5 26C19.37 26 19.24 25.95 19.15 25.85C18.95 25.65 18.95 25.34 19.15 25.14L24.15 20.14C24.35 19.94 24.66 19.94 24.86 20.14C25.06 20.34 25.06 20.65 24.86 20.85L19.86 25.85C19.76 25.95 19.63 26 19.51 26H19.5Z" fill="#C41D39"/>
<path d="M37.1299 31H27.2799C27.1799 31.19 27.0599 31.35 26.9099 31.44C26.5899 31.62 26.0699 31.53 25.6399 31.44C25.6399 31.46 25.6299 31.47 25.6299 31.49C25.6299 31.77 25.8499 31.99 26.1299 31.99H37.1299C37.4099 31.99 37.6299 31.77 37.6299 31.49C37.6299 31.21 37.4099 30.99 37.1299 30.99V31Z" fill="#C41D39"/>
<path d="M37.13 23H31.71C31.76 23.14 31.76 23.26 31.65 23.41C31.65 23.41 31.59 23.5 31.5 23.63C31.55 23.71 31.6 23.79 31.66 23.87C31.69 23.92 31.69 23.95 31.71 23.99H37.14C37.42 23.99 37.64 23.77 37.64 23.49C37.64 23.21 37.42 22.99 37.14 22.99L37.13 23Z" fill="#C41D39"/>
<path d="M24.5 26C24.37 26 24.24 25.95 24.15 25.85L19.14 20.85C18.94 20.65 18.94 20.34 19.14 20.14C19.34 19.94 19.65 19.94 19.85 20.14L24.85 25.14C25.05 25.34 25.05 25.65 24.85 25.85C24.75 25.95 24.62 26 24.5 26Z" fill="#C41D39"/>
</g>
<defs>
<clipPath id="clip0_803_3079">
<rect width="29" height="29.98" fill="white" transform="translate(12 13)"/>
</clipPath>
</defs>
</svg>
