<svg width="16" height="16" viewBox="0 0 16 16" fill="none" xmlns="http://www.w3.org/2000/svg">
<path d="M10 16H3C1.35 16 0 14.65 0 13V3C0 1.35 1.35 0 3 0H10C10.55 0 11 0.45 11 1C11 1.55 10.55 2 10 2H3C2.45 2 2 2.45 2 3V13C2 13.55 2.45 14 3 14H10C10.55 14 11 14.45 11 15C11 15.55 10.55 16 10 16Z" fill="#919497"/>
<path d="M15 9H5C4.45 9 4 8.55 4 8C4 7.45 4.45 7 5 7H15C15.55 7 16 7.45 16 8C16 8.55 15.55 9 15 9Z" fill="#919497"/>
<path d="M15.0001 8.99995C14.7401 8.99995 14.4901 8.89995 14.2901 8.70995L11.2901 5.70995C10.9001 5.31995 10.9001 4.68995 11.2901 4.29995C11.6801 3.90995 12.3101 3.90995 12.7001 4.29995L15.7001 7.29995C16.0901 7.68995 16.0901 8.31995 15.7001 8.70995C15.5001 8.90995 15.2501 8.99995 14.9901 8.99995H15.0001Z" fill="#919497"/>
<path d="M12.0001 11.9999C11.7401 11.9999 11.4901 11.8999 11.2901 11.7099C10.9001 11.3199 10.9001 10.6899 11.2901 10.2999L14.2901 7.29995C14.6801 6.90995 15.3101 6.90995 15.7001 7.29995C16.0901 7.68995 16.0901 8.31995 15.7001 8.70995L12.7001 11.7099C12.5001 11.9099 12.2501 11.9999 11.9901 11.9999H12.0001Z" fill="#919497"/>
</svg>
