<svg width="30" height="30" viewBox="0 0 30 30" fill="none" xmlns="http://www.w3.org/2000/svg">
<g clip-path="url(#clip0_803_3099)">
<path d="M15 24.5C9.76 24.5 5.5 20.24 5.5 15C5.5 9.76 9.76 5.5 15 5.5C20.24 5.5 24.5 9.76 24.5 15C24.5 20.24 20.24 24.5 15 24.5ZM15 6.5C10.31 6.5 6.5 10.31 6.5 15C6.5 19.69 10.31 23.5 15 23.5C19.69 23.5 23.5 19.69 23.5 15C23.5 10.31 19.69 6.5 15 6.5Z" fill="#C41D39"/>
<path d="M16 11V13C16 13.55 16.45 14 17 14H19V16H17C16.45 16 16 16.45 16 17V19H14V17C14 16.45 13.55 16 13 16H11V14H13C13.55 14 14 13.55 14 13V11H16ZM16 10H14C13.45 10 13 10.45 13 11V13H11C10.45 13 10 13.45 10 14V16C10 16.55 10.45 17 11 17H13V19C13 19.55 13.45 20 14 20H16C16.55 20 17 19.55 17 19V17H19C19.55 17 20 16.55 20 16V14C20 13.45 19.55 13 19 13H17V11C17 10.45 16.55 10 16 10Z" fill="#C41D39"/>
<path d="M14.97 29.91H14.96C14.27 29.91 13.66 29.4 13.12 28.96L12.87 28.75C11.79 27.91 10.9 27.64 10.06 27.92C10.02 27.94 9.97005 27.94 9.92005 27.95L9.29005 27.99C8.83005 28.02 8.43005 28.04 8.03005 28.02C7.69005 28 7.21005 27.78 7.01005 27.41C6.76005 26.96 6.53005 26.5 6.30005 26.04C6.08005 25.6 5.86005 25.16 5.62005 24.73C5.52005 24.54 5.32005 24.35 5.13005 24.24C4.39005 23.83 3.57005 23.41 2.53005 22.92C2.00005 22.67 1.77005 22.28 1.81005 21.71C1.88005 20.79 1.95005 19.79 1.96005 18.8C1.96005 18.54 1.88005 18.24 1.74005 18.01C1.25005 17.19 0.170046 15.6 0.160046 15.59C-0.0599538 15.23 -0.0599538 14.69 0.150046 14.35C0.400046 13.93 0.670046 13.53 0.940046 13.12C1.21005 12.71 1.49005 12.29 1.74005 11.87C1.88005 11.64 1.96005 11.34 1.96005 11.08C1.96005 10.08 1.88005 9.08998 1.81005 8.16998C1.76005 7.59998 1.99005 7.20998 2.53005 6.95998C3.57005 6.46998 4.39005 6.04998 5.13005 5.63998C5.32005 5.52998 5.52005 5.33998 5.62005 5.14998C5.86005 4.71998 6.08005 4.28998 6.29005 3.84998C6.52005 3.38998 6.75005 2.92998 7.00005 2.47998C7.21005 2.10998 7.68005 1.88998 8.02005 1.86998C8.43005 1.84998 8.82005 1.86998 9.28005 1.89998L9.91005 1.92998C9.91005 1.92998 10 1.93998 10.05 1.95998C10.89 2.23998 11.78 1.97998 12.86 1.12998L13.11 0.92998C13.65 0.48998 14.27 -0.0100195 14.95 -0.0200195H14.96C15.64 -0.0200195 16.24 0.49998 16.78 0.95998L17 1.14998C17.9 1.89998 18.86 2.15998 20.02 1.95998L20.18 1.92998C20.88 1.80998 21.75 1.64998 22.38 2.00998C22.99 2.35998 23.28 3.11998 23.53 3.79998L23.61 3.99998C24.05 5.15998 24.77 5.86998 25.86 6.24998C26.11 6.33998 26.33 6.45998 26.54 6.57998C26.71 6.66998 26.87 6.76998 27.05 6.82998C28.05 7.17998 28.08 7.94998 28.02 8.50998C27.93 9.31998 27.88 10.19 27.87 11.15C27.87 11.36 27.94 11.62 28.06 11.81C28.52 12.57 29.05 13.36 29.66 14.25C29.99 14.73 29.99 15.17 29.66 15.66C29.66 15.66 28.55 17.24 28.06 18.06C27.94 18.26 27.86 18.52 27.87 18.72C27.88 19.68 27.93 20.54 28.02 21.36C28.08 21.91 28.05 22.69 27.05 23.04C26.87 23.1 26.71 23.2 26.54 23.29C26.33 23.41 26.11 23.53 25.86 23.61C24.76 23.99 24.05 24.7 23.61 25.86L23.53 26.06C23.28 26.74 22.99 27.51 22.38 27.86C21.75 28.22 20.88 28.06 20.18 27.94L20.02 27.91C18.86 27.71 17.9 27.96 17 28.72L16.78 28.91C16.25 29.37 15.64 29.89 14.96 29.89L14.97 29.91ZM10.7 26.82C11.57 26.82 12.49 27.2 13.47 27.97L13.74 28.19C14.13 28.51 14.63 28.91 14.96 28.91C15.27 28.91 15.76 28.48 16.13 28.17L16.36 27.97C17.49 27.03 18.75 26.69 20.19 26.95L20.35 26.98C20.86 27.07 21.56 27.2 21.88 27.02C22.17 26.85 22.41 26.21 22.59 25.74L22.67 25.53C23.22 24.09 24.16 23.17 25.53 22.69C25.71 22.63 25.88 22.53 26.04 22.44C26.26 22.32 26.48 22.2 26.71 22.12C26.98 22.02 27.07 21.95 27.02 21.5C26.92 20.65 26.87 19.75 26.86 18.76C26.86 18.37 26.98 17.92 27.2 17.56C27.71 16.72 28.79 15.17 28.84 15.11C28.91 15.01 28.91 14.98 28.91 14.97C28.91 14.97 28.91 14.93 28.84 14.85C28.21 13.95 27.67 13.13 27.2 12.36C26.98 12 26.86 11.56 26.86 11.16C26.87 10.16 26.92 9.25998 27.02 8.41998C27.07 7.95998 26.99 7.89998 26.71 7.79998C26.48 7.71998 26.26 7.59998 26.04 7.47998C25.87 7.38998 25.7 7.28998 25.52 7.22998C24.14 6.75998 23.2 5.82998 22.66 4.38998L22.58 4.17998C22.41 3.70998 22.17 3.06998 21.87 2.90998C21.56 2.72998 20.85 2.85998 20.34 2.94998L20.17 2.97998C18.72 3.22998 17.46 2.89998 16.34 1.95998L16.11 1.75998C15.75 1.44998 15.25 1.01998 14.94 1.01998C14.6 1.01998 14.11 1.41998 13.72 1.73998L13.45 1.95998C12.13 2.99998 10.93 3.32998 9.78005 2.96998C9.57005 2.95998 9.38005 2.94998 9.20005 2.93998C8.75005 2.90998 8.40005 2.88998 8.05005 2.90998C8.00005 2.90998 7.87005 2.97998 7.84005 3.01998C7.60005 3.44998 7.38005 3.88998 7.15005 4.33998C6.92005 4.78998 6.70005 5.23998 6.46005 5.67998C6.27005 6.02998 5.94005 6.35998 5.58005 6.55998C4.82005 6.97998 3.98005 7.40998 2.92005 7.90998C2.81338 7.96331 2.76338 8.03998 2.77005 8.13998C2.84005 9.02998 2.91005 10.08 2.92005 11.12C2.92005 11.56 2.79005 12.04 2.56005 12.43C2.30005 12.87 2.01005 13.3 1.73005 13.72C1.47005 14.11 1.21005 14.51 0.960046 14.91C0.950046 14.94 0.950046 15.06 0.960046 15.1C0.980046 15.13 2.04005 16.69 2.55005 17.54C2.78005 17.92 2.91005 18.41 2.91005 18.85C2.91005 19.87 2.83005 20.89 2.76005 21.83C2.75338 21.93 2.80338 22.0066 2.91005 22.06C3.97005 22.56 4.81005 22.99 5.57005 23.41C5.93005 23.61 6.26005 23.94 6.45005 24.29C6.69005 24.73 6.92005 25.18 7.15005 25.63C7.37005 26.08 7.60005 26.52 7.84005 26.96C7.87005 26.99 7.99005 27.05 8.04005 27.06C8.39005 27.08 8.74005 27.06 9.19005 27.03C9.37005 27.02 9.56005 27.01 9.77005 27C10.06 26.91 10.36 26.86 10.67 26.86L10.7 26.82Z" fill="#C41D39"/>
</g>
<defs>
<clipPath id="clip0_803_3099">
<rect width="29.93" height="29.91" fill="white"/>
</clipPath>
</defs>
</svg>
