<svg width="26" height="27" viewBox="0 0 26 27" fill="none" xmlns="http://www.w3.org/2000/svg">
<g clip-path="url(#clip0_1392_6370)">
<path d="M23.5 23.005H20.5V22.005H23.5C24.33 22.005 25 21.335 25 20.505V12.505C25 11.675 24.33 11.005 23.5 11.005H2.5C1.67 11.005 1 11.675 1 12.505V20.505C1 21.335 1.67 22.005 2.5 22.005H5.5V23.005H2.5C1.12 23.005 0 21.885 0 20.505V12.505C0 11.125 1.12 10.005 2.5 10.005H23.5C24.88 10.005 26 11.125 26 12.505V20.505C26 21.885 24.88 23.005 23.5 23.005Z" fill="#696B6F"/>
<path d="M22.5 17.005H3.5C3.22 17.005 3 16.785 3 16.505C3 16.225 3.22 16.005 3.5 16.005H22.5C22.78 16.005 23 16.225 23 16.505C23 16.785 22.78 17.005 22.5 17.005Z" fill="#696B6F"/>
<path d="M5.5 14.005H3.5C3.22 14.005 3 13.785 3 13.505C3 13.225 3.22 13.005 3.5 13.005H5.5C5.78 13.005 6 13.225 6 13.505C6 13.785 5.78 14.005 5.5 14.005Z" fill="#696B6F"/>
<path d="M15.59 1.005L20 5.415V10.005H6V1.005H15.59ZM15.59 0.00500488H6C5.45 0.00500488 5 0.455005 5 1.005V11.005H21V5.415C21 5.145 20.89 4.895 20.71 4.705L16.29 0.295005C16.1 0.105005 15.85 0.00500488 15.58 0.00500488H15.59Z" fill="#696B6F"/>
<path d="M20 6.005H16.5C15.67 6.005 15 5.335 15 4.505V1.005H16V4.505C16 4.785 16.22 5.005 16.5 5.005H20V6.005Z" fill="#696B6F"/>
<path d="M24 11.005H2V7.32501C2 6.04501 3.12 5.005 4.5 5.005H5.5V6.005H4.5C3.67 6.005 3 6.59501 3 7.32501V10.005H23V7.32501C23 6.59501 22.33 6.005 21.5 6.005H20.5V5.005H21.5C22.88 5.005 24 6.04501 24 7.32501V11.005Z" fill="#696B6F"/>
<path d="M19.5 26.005H6.5C5.67 26.005 5 25.335 5 24.505V16.505H6V24.505C6 24.785 6.22 25.005 6.5 25.005H19.5C19.78 25.005 20 24.785 20 24.505V16.505H21V24.505C21 25.335 20.33 26.005 19.5 26.005Z" fill="#696B6F"/>
<path d="M17.5 23.005H8.5C8.22 23.005 8 22.785 8 22.505C8 22.225 8.22 22.005 8.5 22.005H17.5C17.78 22.005 18 22.225 18 22.505C18 22.785 17.78 23.005 17.5 23.005Z" fill="#696B6F"/>
<path d="M17.5 20.005H8.5C8.22 20.005 8 19.785 8 19.505C8 19.225 8.22 19.005 8.5 19.005H17.5C17.78 19.005 18 19.225 18 19.505C18 19.785 17.78 20.005 17.5 20.005Z" fill="#696B6F"/>
</g>
<defs>
<clipPath id="clip0_1392_6370">
<rect width="26" height="26" fill="white" transform="translate(0 0.00500488)"/>
</clipPath>
</defs>
</svg>
