<svg width="26" height="26" viewBox="0 0 26 26" fill="none" xmlns="http://www.w3.org/2000/svg">
<g clip-path="url(#clip0_1353_8780)">
<path d="M19 25.97C15.14 25.97 12 22.83 12 18.97C12 15.11 15.14 11.97 19 11.97C22.86 11.97 26 15.11 26 18.97C26 22.83 22.86 25.97 19 25.97ZM19 12.97C15.69 12.97 13 15.66 13 18.97C13 22.28 15.69 24.97 19 24.97C22.31 24.97 25 22.28 25 18.97C25 15.66 22.31 12.97 19 12.97Z" fill="#696B6F"/>
<path d="M18.5 20.9701C18.37 20.9701 18.24 20.9201 18.15 20.8201L16.15 18.8201C15.95 18.6201 15.95 18.3101 16.15 18.1101C16.35 17.9101 16.66 17.9101 16.86 18.1101L18.51 19.7601L21.16 17.1101C21.36 16.9101 21.67 16.9101 21.87 17.1101C22.07 17.3101 22.07 17.6201 21.87 17.8201L18.87 20.8201C18.77 20.9201 18.64 20.9701 18.52 20.9701H18.5Z" fill="#696B6F"/>
<path d="M14.25 23.97H2.5C1.12 23.97 0 22.85 0 21.47V2.53003C0 1.15003 1.12 0.0300293 2.5 0.0300293H16.5C17.88 0.0300293 19 1.15003 19 2.53003V12.47C19 12.75 18.78 12.97 18.5 12.97C18.22 12.97 18 12.75 18 12.47V2.53003C18 1.70003 17.33 1.03003 16.5 1.03003H2.5C1.67 1.03003 1 1.70003 1 2.53003V21.47C1 22.3 1.67 22.97 2.5 22.97H14.25C14.53 22.97 14.75 23.19 14.75 23.47C14.75 23.75 14.53 23.97 14.25 23.97Z" fill="#696B6F"/>
<path d="M12.5 17.97H3.5C3.22 17.97 3 17.75 3 17.47C3 17.19 3.22 16.97 3.5 16.97H12.5C12.78 16.97 13 17.19 13 17.47C13 17.75 12.78 17.97 12.5 17.97Z" fill="#696B6F"/>
<path d="M14.25 14.97H3.5C3.22 14.97 3 14.75 3 14.47C3 14.19 3.22 13.97 3.5 13.97H14.25C14.53 13.97 14.75 14.19 14.75 14.47C14.75 14.75 14.53 14.97 14.25 14.97Z" fill="#696B6F"/>
<path d="M15.5 11.97H3.5C3.22 11.97 3 11.75 3 11.47C3 11.19 3.22 10.97 3.5 10.97H15.5C15.78 10.97 16 11.19 16 11.47C16 11.75 15.78 11.97 15.5 11.97Z" fill="#696B6F"/>
<path d="M15.5 8.96997H3.5C3.22 8.96997 3 8.74997 3 8.46997C3 8.18997 3.22 7.96997 3.5 7.96997H15.5C15.78 7.96997 16 8.18997 16 8.46997C16 8.74997 15.78 8.96997 15.5 8.96997Z" fill="#696B6F"/>
<path d="M15.5 4.96997H3.5C3.22 4.96997 3 4.74997 3 4.46997C3 4.18997 3.22 3.96997 3.5 3.96997H15.5C15.78 3.96997 16 4.18997 16 4.46997C16 4.74997 15.78 4.96997 15.5 4.96997Z" fill="#696B6F"/>
</g>
<defs>
<clipPath id="clip0_1353_8780">
<rect width="26" height="25.94" fill="white" transform="translate(0 0.0300293)"/>
</clipPath>
</defs>
</svg>
