<svg width="33" height="32" viewBox="0 0 33 32" fill="none" xmlns="http://www.w3.org/2000/svg">
<g clip-path="url(#clip0_2107_7363)">
<g clip-path="url(#clip1_2107_7363)">
<path d="M13.5 20H1.5C0.67 20 0 19.33 0 18.5V1.5C0 0.67 0.67 0 1.5 0H25.5C26.33 0 27 0.67 27 1.5V10C27 10.28 26.78 10.5 26.5 10.5C26.22 10.5 26 10.28 26 10V1.5C26 1.22 25.78 1 25.5 1H1.5C1.22 1 1 1.22 1 1.5V18.5C1 18.78 1.22 19 1.5 19H13.5C13.78 19 14 19.22 14 19.5C14 19.78 13.78 20 13.5 20Z" fill="#696B6F"/>
<path d="M13 16H0.820007C0.540007 16 0.320007 15.78 0.320007 15.5C0.320007 15.22 0.540007 15 0.820007 15H13C13.28 15 13.5 15.22 13.5 15.5C13.5 15.78 13.28 16 13 16Z" fill="#696B6F"/>
<path d="M17 24H7.5C7.22 24 7 23.78 7 23.5C7 23.22 7.22 23 7.5 23H17C17.28 23 17.5 23.22 17.5 23.5C17.5 23.78 17.28 24 17 24Z" fill="#696B6F"/>
<path d="M9.49999 24C9.41999 24 9.34999 23.98 9.27999 23.95C9.02999 23.83 8.92999 23.53 9.05999 23.28C9.05999 23.26 10.01 21.36 10.01 19.5C10.01 19.22 10.23 19 10.51 19C10.79 19 11.01 19.22 11.01 19.5C11.01 21.59 9.99999 23.64 9.95999 23.72C9.86999 23.9 9.69999 24 9.50999 24H9.49999Z" fill="#696B6F"/>
<path d="M19 24.5C18.78 24.5 18.57 24.35 18.52 24.12C18.47 23.94 18.41 23.75 18.34 23.56C18.18 23.09 18 22.56 18 22C18 21.72 18.22 21.5 18.5 21.5C18.78 21.5 19 21.72 19 22C19 22.39 19.15 22.82 19.29 23.24C19.36 23.46 19.44 23.67 19.49 23.87C19.56 24.14 19.4 24.41 19.13 24.48C19.09 24.49 19.05 24.5 19.01 24.5H19Z" fill="#696B6F"/>
<path d="M21.36 25C18.56 25 15.82 23.65 14.15 21.16C11.5 17.19 12.57 11.81 16.54 9.16C18.46 7.88 20.77 7.42 23.04 7.87C25.31 8.32 27.26 9.63 28.55 11.55C29.83 13.47 30.29 15.78 29.84 18.05C29.39 20.32 28.08 22.27 26.16 23.56C24.69 24.54 23.02 25.01 21.37 25.01L21.36 25ZM21.33 8.69C19.83 8.69 18.37 9.13 17.1 9.98C13.59 12.32 12.64 17.08 14.99 20.59C17.33 24.1 22.1 25.05 25.6 22.7C27.3 21.57 28.46 19.84 28.86 17.83C29.26 15.82 28.86 13.78 27.72 12.08C26.59 10.38 24.86 9.22 22.85 8.82C22.35 8.72 21.84 8.67 21.34 8.67L21.33 8.69Z" fill="#696B6F"/>
<path d="M29.54 32C28.73 32 27.94 31.61 27.46 30.89L24.05 24.1C23.93 23.85 24.03 23.55 24.27 23.43C24.52 23.31 24.82 23.41 24.94 23.65L28.32 30.39C28.75 31.02 29.68 31.21 30.37 30.75C30.7 30.53 30.93 30.19 31.01 29.8C31.09 29.41 31.01 29.01 30.79 28.67L26.13 23.28C25.95 23.07 25.97 22.76 26.18 22.57C26.39 22.39 26.7 22.41 26.89 22.62L31.59 28.06C32 28.66 32.13 29.33 32 29.99C31.87 30.65 31.49 31.21 30.94 31.58C30.51 31.86 30.03 32 29.56 32H29.54Z" fill="#696B6F"/>
<path d="M27.5 22H15C14.72 22 14.5 21.78 14.5 21.5C14.5 21.22 14.72 21 15 21H27.5C27.78 21 28 21.22 28 21.5C28 21.78 27.78 22 27.5 22Z" fill="#696B6F"/>
<path d="M29 18H13.5C13.22 18 13 17.78 13 17.5C13 17.22 13.22 17 13.5 17H29C29.28 17 29.5 17.22 29.5 17.5C29.5 17.78 29.28 18 29 18Z" fill="#696B6F"/>
<path d="M15 16C14.72 16 14.5 15.78 14.5 15.5C14.5 12.47 16.97 10 20 10C20.28 10 20.5 10.22 20.5 10.5C20.5 10.78 20.28 11 20 11C17.52 11 15.5 13.02 15.5 15.5C15.5 15.78 15.28 16 15 16Z" fill="#696B6F"/>
<path d="M14.5 5H4.5C4.22 5 4 4.78 4 4.5C4 4.22 4.22 4 4.5 4H14.5C14.78 4 15 4.22 15 4.5C15 4.78 14.78 5 14.5 5Z" fill="#696B6F"/>
<path d="M12.5 8H4.5C4.22 8 4 7.78 4 7.5C4 7.22 4.22 7 4.5 7H12.5C12.78 7 13 7.22 13 7.5C13 7.78 12.78 8 12.5 8Z" fill="#696B6F"/>
<path d="M10.5 11H4.5C4.22 11 4 10.78 4 10.5C4 10.22 4.22 10 4.5 10H10.5C10.78 10 11 10.22 11 10.5C11 10.78 10.78 11 10.5 11Z" fill="#696B6F"/>
</g>
</g>
<defs>
<clipPath id="clip0_2107_7363">
<rect width="32.04" height="32" fill="white"/>
</clipPath>
<clipPath id="clip1_2107_7363">
<rect width="32.04" height="32" fill="white"/>
</clipPath>
</defs>
</svg>
