<svg width="26" height="26" viewBox="0 0 26 26" fill="none" xmlns="http://www.w3.org/2000/svg">
<g clip-path="url(#clip0_2101_9880)">
<path d="M5.93997 23.7599C4.93997 23.7599 3.97997 23.3599 3.26997 22.6599C2.41997 21.7999 1.95997 20.6199 1.99997 19.4199C2.03997 18.2199 2.59997 17.0799 3.50997 16.2899L9.38997 11.2499C8.63997 8.69994 9.30997 5.98994 11.2 4.10994C13.17 2.14994 16.12 1.48994 18.74 2.40994C18.9 2.46994 19.02 2.59994 19.06 2.76994C19.1 2.93994 19.05 3.10994 18.93 3.22994L14.83 7.32994L15.39 10.1299L18.19 10.6899L22.29 6.58994C22.41 6.46994 22.58 6.41994 22.75 6.45994C22.92 6.49994 23.05 6.61994 23.11 6.77994C24.04 9.38994 23.38 12.3499 21.42 14.2999C19.46 16.2499 16.76 16.8599 14.23 16.0999L8.79997 22.4299C8.11997 23.2199 7.12997 23.6999 6.07997 23.7399C6.02997 23.7399 5.97997 23.7399 5.93997 23.7399V23.7599ZM16.32 2.99994C14.69 2.99994 13.09 3.62994 11.92 4.80994C10.22 6.50994 9.65997 8.96994 10.45 11.2499C10.52 11.4399 10.45 11.6599 10.3 11.7899L4.16997 17.0499C3.45997 17.6599 3.03997 18.5199 3.00997 19.4599C2.97997 20.3999 3.31997 21.2799 3.98997 21.9499C4.53997 22.4999 5.27997 22.7999 6.05997 22.7599C6.83997 22.7299 7.54997 22.3899 8.05997 21.7899L13.71 15.1999C13.84 15.0399 14.06 14.9799 14.26 15.0499C16.51 15.8499 19.06 15.2799 20.74 13.5899C22.23 12.0999 22.85 9.93994 22.42 7.89994L18.74 11.5799C18.62 11.6999 18.45 11.7499 18.29 11.7199L14.9 11.0399C14.7 10.9999 14.55 10.8499 14.51 10.6499L13.83 7.25994C13.8 7.09994 13.85 6.92994 13.97 6.80994L17.65 3.12994C17.22 3.03994 16.79 2.99994 16.36 2.99994H16.32Z" fill="#696B6F"/>
</g>
<defs>
<clipPath id="clip0_2101_9880">
<rect width="22" height="22" fill="white" transform="translate(2 2)"/>
</clipPath>
</defs>
</svg>
