<svg width="32" height="30" viewBox="0 0 32 30" fill="none" xmlns="http://www.w3.org/2000/svg">
<g clip-path="url(#clip0_1701_3658)">
<path d="M17.27 29C16.43 29 15.58 29 14.74 29C14.05 29 13.61 28.6 13.53 27.91L13.47 27.39C13.4 26.78 13.33 26.15 13.21 25.55C13.19 25.43 13.05 25.23 12.94 25.18C12.48 24.94 12 24.75 11.49 24.55L10.93 24.32C10.93 24.32 10.84 24.29 10.79 24.27C10.7 24.31 10.61 24.36 10.53 24.42C9.92 24.88 9.32 25.34 8.73 25.82C8.11 26.31 7.48 26.28 6.95 25.72C6.4 25.14 5.83 24.58 5.26 24.02C4.74 23.52 4.71 22.9 5.15 22.34C5.38 22.05 5.61 21.75 5.84 21.45C6.1 21.11 6.37 20.77 6.64 20.43C6.74 20.3 6.77 20.23 6.67 20.01C6.41 19.46 6.16 18.86 5.86 18.06C5.78 17.84 5.7 17.8 5.53 17.78C5.08 17.73 4.63 17.67 4.17 17.61C3.82 17.56 3.47 17.52 3.13 17.48C2.39 17.4 2 16.94 2 16.21C2 15.39 2 14.57 2 13.74C2 13.04 2.39 12.59 3.07 12.51L3.97 12.39C4.47 12.32 4.97 12.25 5.48 12.2C5.68 12.18 5.76 12.13 5.85 11.89C6.12 11.14 6.37 10.53 6.64 9.98997C6.75 9.75997 6.73 9.67997 6.6 9.51997C6.37 9.22997 6.14 8.93997 5.91 8.63997C5.67 8.32997 5.43 8.01997 5.18 7.70997C4.67 7.08997 4.71 6.43997 5.3 5.87997C5.86 5.34997 6.4 4.80997 6.9 4.26997C7.45 3.68997 8.1 3.64997 8.73 4.16997C9.01 4.39997 9.3 4.61997 9.59 4.83997C9.89 5.06997 10.2 5.30997 10.5 5.54997C10.69 5.69997 10.79 5.71997 11.01 5.59997C11.67 5.26997 12.35 5.01997 12.87 4.82997C13.14 4.72997 13.2 4.64997 13.21 4.43997C13.25 3.97997 13.32 3.51997 13.38 3.05997C13.42 2.73997 13.47 2.40997 13.51 2.08997C13.59 1.36997 14.06 0.989971 14.77 0.969971C15.59 0.969971 16.41 0.969971 17.23 0.969971H17.25C17.95 0.969971 18.4 1.37997 18.49 2.08997C18.53 2.38997 18.57 2.68997 18.61 2.98997C18.67 3.44997 18.74 3.91997 18.78 4.38997C18.8 4.65997 18.87 4.74997 19.13 4.82997C19.83 5.06997 20.44 5.31997 21 5.59997C21.22 5.70997 21.31 5.69997 21.5 5.53997C21.79 5.29997 22.08 5.07997 22.38 4.84997C22.68 4.61997 22.98 4.38997 23.27 4.14997C23.9 3.62997 24.55 3.66997 25.1 4.24997C25.63 4.81997 26.19 5.35997 26.75 5.89997C27.3 6.41997 27.34 7.03997 26.86 7.62997C26.63 7.90997 26.41 8.19997 26.19 8.48997C25.93 8.82997 25.67 9.15997 25.41 9.48997C25.28 9.64997 25.26 9.72997 25.37 9.95997C25.63 10.5 25.88 11.1 26.16 11.86C26.25 12.1 26.33 12.15 26.53 12.17C26.97 12.21 27.41 12.27 27.84 12.33C28.18 12.38 28.53 12.42 28.87 12.46C29.61 12.54 30.02 13.01 30 13.77C29.99 14.57 29.99 15.37 30 16.17C30 16.89 29.61 17.36 28.9 17.44C28.56 17.48 28.22 17.53 27.88 17.57C27.42 17.63 26.96 17.69 26.5 17.74C26.32 17.76 26.25 17.8 26.17 18.02C25.95 18.6 25.68 19.29 25.36 19.97C25.26 20.18 25.28 20.25 25.39 20.39C25.63 20.69 25.87 21 26.1 21.3C26.34 21.62 26.59 21.93 26.84 22.24C27.33 22.85 27.29 23.48 26.72 24.02C26.16 24.56 25.61 25.11 25.07 25.67C24.54 26.23 23.9 26.26 23.29 25.77C23.05 25.57 22.8 25.39 22.55 25.2C22.22 24.94 21.88 24.69 21.56 24.42C21.32 24.22 21.19 24.2 20.92 24.35C20.43 24.61 19.89 24.84 19.15 25.09C18.86 25.19 18.8 25.28 18.78 25.51C18.73 26.01 18.66 26.51 18.6 27C18.56 27.29 18.52 27.57 18.48 27.86C18.4 28.55 17.95 28.94 17.26 28.94L17.27 29ZM16 28C16.42 28 16.85 28 17.27 28C17.44 28 17.47 27.99 17.5 27.8C17.54 27.51 17.58 27.21 17.62 26.92C17.69 26.44 17.75 25.96 17.8 25.47C17.86 24.83 18.2 24.41 18.85 24.19C19.53 23.96 20.03 23.75 20.47 23.52C21.1 23.18 21.67 23.24 22.22 23.71C22.53 23.97 22.85 24.22 23.17 24.46C23.42 24.65 23.68 24.85 23.93 25.05C24.16 25.24 24.2 25.2 24.36 25.05C24.91 24.48 25.47 23.91 26.04 23.37C26.23 23.19 26.23 23.14 26.07 22.94C25.81 22.62 25.57 22.3 25.32 21.98C25.09 21.68 24.86 21.38 24.62 21.08C24.26 20.63 24.21 20.14 24.46 19.6C24.76 18.96 25.02 18.29 25.23 17.73C25.44 17.17 25.82 16.87 26.39 16.8C26.84 16.75 27.29 16.69 27.75 16.63C28.09 16.58 28.44 16.54 28.78 16.5C28.97 16.48 29.01 16.46 29 16.23C29 15.42 28.99 14.61 29 13.8C29 13.55 28.97 13.53 28.75 13.5C28.4 13.46 28.05 13.41 27.69 13.36C27.27 13.3 26.84 13.24 26.41 13.2C25.81 13.14 25.42 12.82 25.2 12.24C24.94 11.51 24.7 10.94 24.45 10.43C24.18 9.86997 24.23 9.36997 24.61 8.89997C24.87 8.57997 25.13 8.24997 25.38 7.91997C25.61 7.62997 25.83 7.32997 26.06 7.04997C26.21 6.86997 26.2 6.82997 26.04 6.65997C25.47 6.10997 24.9 5.54997 24.36 4.96997C24.18 4.77997 24.13 4.75997 23.89 4.95997C23.59 5.19997 23.29 5.43997 22.98 5.67997C22.69 5.89997 22.41 6.11997 22.13 6.34997C21.63 6.75997 21.11 6.80997 20.54 6.52997C20.02 6.26997 19.45 6.02997 18.8 5.80997C18.17 5.59997 17.84 5.16997 17.78 4.50997C17.74 4.05997 17.68 3.60997 17.61 3.15997C17.57 2.84997 17.53 2.54997 17.49 2.23997C17.46 2.01997 17.42 1.99997 17.23 1.99997C16.4 1.99997 15.57 1.99997 14.75 1.99997C14.53 1.99997 14.52 2.01997 14.49 2.22997C14.45 2.55997 14.41 2.88997 14.36 3.21997C14.3 3.66997 14.24 4.10997 14.19 4.55997C14.13 5.16997 13.8 5.57997 13.18 5.79997C12.69 5.96997 12.05 6.20997 11.43 6.51997C10.86 6.80997 10.34 6.74997 9.84 6.34997C9.55 6.10997 9.25 5.87997 8.96 5.65997C8.66 5.42997 8.37 5.19997 8.08 4.96997C7.83 4.75997 7.78 4.79997 7.61 4.96997C7.1 5.51997 6.54 6.06997 5.96 6.61997C5.74 6.82997 5.75 6.87997 5.92 7.08997C6.18 7.39997 6.42 7.71997 6.67 8.03997C6.89 8.32997 7.11 8.61997 7.34 8.89997C7.72 9.36997 7.78 9.86997 7.51 10.44C7.26 10.95 7.02 11.53 6.76 12.25C6.55 12.84 6.15 13.15 5.56 13.21C5.07 13.26 4.57 13.33 4.08 13.4L3.17 13.52C3 13.54 2.97 13.56 2.97 13.75C2.97 14.58 2.97 15.41 2.97 16.23C2.97 16.47 3 16.48 3.19 16.5C3.54 16.54 3.9 16.59 4.25 16.64C4.69 16.7 5.14 16.76 5.58 16.81C6.15 16.87 6.54 17.18 6.74 17.73C7.03 18.5 7.26 19.07 7.51 19.6C7.77 20.14 7.72 20.63 7.35 21.08C7.08 21.41 6.82 21.75 6.56 22.09C6.33 22.39 6.1 22.69 5.86 22.99C5.73 23.16 5.73 23.19 5.88 23.33C6.46 23.9 7.04 24.47 7.6 25.05C7.77 25.22 7.81 25.24 8.03 25.06C8.63 24.58 9.24 24.1 9.86 23.64C10 23.54 10.15 23.46 10.3 23.38L10.63 23.2L10.98 23.32C11.08 23.35 11.16 23.38 11.24 23.41L11.79 23.63C12.3 23.83 12.83 24.04 13.34 24.3C13.71 24.49 14.04 24.94 14.13 25.36C14.26 26 14.34 26.65 14.41 27.28L14.47 27.79C14.5 27.99 14.55 27.99 14.69 28C15.11 28 15.53 28 15.96 28H16Z" fill="#696B6F"/>
<path d="M16 20C13.24 20 11 17.76 11 15C11 12.24 13.24 10 16 10C18.76 10 21 12.24 21 15C21 17.76 18.76 20 16 20ZM16 11C13.79 11 12 12.79 12 15C12 17.21 13.79 19 16 19C18.21 19 20 17.21 20 15C20 12.79 18.21 11 16 11Z" fill="#696B6F"/>
<path d="M16 22C12.14 22 9 18.86 9 15C9 11.14 12.14 8 16 8C19.86 8 23 11.14 23 15C23 18.86 19.86 22 16 22ZM16 9C12.69 9 10 11.69 10 15C10 18.31 12.69 21 16 21C19.31 21 22 18.31 22 15C22 11.69 19.31 9 16 9Z" fill="#696B6F"/>
</g>
<defs>
<clipPath id="clip0_1701_3658">
<rect width="28" height="28" fill="white" transform="translate(2 1)"/>
</clipPath>
</defs>
</svg>
