<svg width="26" height="26" viewBox="0 0 26 26" fill="none" xmlns="http://www.w3.org/2000/svg">
<g clip-path="url(#clip0_1392_6399)">
<path d="M13.0099 25.9951C12.5599 25.9951 12.1099 25.6551 11.5999 25.2351L11.3599 25.0351C10.6899 24.5151 10.0599 24.2151 9.47992 24.1351H9.18992C8.96992 24.1351 8.74992 24.1651 8.52992 24.2351L8.40992 24.2551L7.89992 24.2851C7.47992 24.3151 7.14992 24.3351 6.80992 24.3151C6.60992 24.2851 6.41992 24.1851 6.30992 24.0851L6.21992 23.9651C5.99992 23.5651 5.78992 23.1651 5.58992 22.7551C5.39992 22.3551 5.18992 21.9651 4.97992 21.5751C4.85992 21.3451 4.62992 21.1151 4.38992 20.9851C3.67992 20.5951 2.94992 20.2251 2.03992 19.7951C1.74992 19.6551 1.59992 19.3951 1.61992 19.1051V18.9851C1.68992 18.1651 1.74992 17.3251 1.74992 16.4751C1.74992 16.1651 1.64992 15.8151 1.49992 15.5651C1.23992 15.1251 0.74992 14.3751 0.11992 13.4451L0.0199202 13.2451C-7.98181e-05 13.1451 -0.0200798 12.9451 0.0199202 12.8051L0.0699202 12.7051C0.29992 12.3351 0.52992 11.9751 0.76992 11.6251L0.84992 11.5051C1.06992 11.1751 1.28992 10.8351 1.49992 10.4951C1.65992 10.2251 1.74992 9.88505 1.74992 9.57505C1.74992 8.62505 1.66992 7.67505 1.61992 6.94505C1.59992 6.64505 1.74992 6.38505 2.02992 6.25505C2.94992 5.82505 3.66992 5.45505 4.38992 5.05505C4.61992 4.92505 4.84992 4.70505 4.98992 4.45505C5.19992 4.07505 5.39992 3.68505 5.58992 3.28505L5.79992 2.88505C5.93992 2.61505 6.07992 2.34505 6.21992 2.08505C6.37992 1.86505 6.63992 1.73505 6.83992 1.73505C7.14992 1.71505 7.49992 1.73505 7.88992 1.76505L8.52992 1.81505C9.38992 2.08505 10.3099 1.81505 11.3599 0.995054L11.5999 0.805054C12.0299 0.455054 12.5399 0.0550537 13.0199 0.0550537C13.4099 0.0550537 13.7899 0.355054 14.2899 0.775054L14.5699 1.01505C15.4499 1.74505 16.4399 2.01505 17.5899 1.81505L17.7199 1.78505C18.4699 1.63505 19.0499 1.58505 19.4299 1.80505C19.8299 2.01505 20.0599 2.58505 20.2799 3.20505L20.3499 3.38505C20.7799 4.52505 21.5199 5.26505 22.5999 5.63505C22.7499 5.68505 22.8899 5.75505 23.0299 5.83505L23.1299 5.88505C23.3099 5.98505 23.4799 6.07505 23.6599 6.14505C24.1699 6.32505 24.3399 6.62505 24.2699 7.22505C24.1799 7.95505 24.1399 8.74505 24.1299 9.63505C24.1299 9.90505 24.2199 10.2051 24.3599 10.4451C24.7399 11.0851 25.1999 11.7851 25.8099 12.6451C25.8999 12.7451 25.9599 12.8951 25.9599 13.0351C25.9599 13.2051 25.8799 13.3351 25.8099 13.4451C25.7199 13.5651 24.7899 14.8951 24.3599 15.6151C24.2199 15.8451 24.1299 16.1651 24.1299 16.4251C24.1299 17.3151 24.1799 18.0951 24.2699 18.8151C24.3399 19.4151 24.1699 19.7151 23.6699 19.8951C23.4899 19.9551 23.3399 20.0351 23.1899 20.1251C22.9399 20.2651 22.7699 20.3551 22.5999 20.4151C21.4999 20.7951 20.7899 21.5151 20.3499 22.6651L20.2799 22.8551C20.0199 23.5251 19.8099 24.0351 19.4299 24.2551C19.0199 24.4851 18.4499 24.4151 17.7599 24.2851L17.5799 24.2551C16.4299 24.0551 15.4599 24.3151 14.5599 25.0651L14.3599 25.2351C13.8399 25.6751 13.4199 26.0151 12.9899 26.0151L13.0099 25.9951ZM9.19992 23.1251C10.0899 23.1251 11.0299 23.5051 11.9899 24.2651L12.2399 24.4651C12.3899 24.5951 12.8599 24.9751 13.0299 24.9951C13.1499 24.9651 13.5799 24.5951 13.7399 24.4551L13.9499 24.2751C15.0799 23.3251 16.3399 22.9951 17.7899 23.2451L17.9399 23.2751C18.2199 23.3251 18.8199 23.4351 18.9799 23.3651C19.0799 23.2751 19.2899 22.7351 19.3799 22.5051L19.4599 22.2951C19.9999 20.8751 20.9399 19.9451 22.3199 19.4551C22.4399 19.4151 22.5499 19.3451 22.6599 19.2851L22.7599 19.2351C22.9499 19.1351 23.1299 19.0351 23.3299 18.9651C23.3299 18.9551 23.3299 18.9351 23.3299 18.9151C23.2399 18.1551 23.1899 17.3351 23.1799 16.4151C23.1799 15.9551 23.3199 15.4651 23.5599 15.0751C23.9199 14.4851 24.6199 13.4551 24.9299 13.0251C24.3499 12.2051 23.9299 11.5451 23.5599 10.9451C23.3199 10.5551 23.1799 10.0651 23.1799 9.61505C23.1799 8.67505 23.2399 7.85505 23.3299 7.09505V7.05505C23.0899 6.95505 22.8999 6.85505 22.7099 6.75505L22.5999 6.69505C22.5099 6.64505 22.4299 6.59505 22.3399 6.56505C20.9699 6.09505 19.9999 5.14505 19.4699 3.72505L19.3999 3.53505C19.2099 3.02505 19.0699 2.72505 18.9799 2.65505C18.9299 2.63505 18.7199 2.59505 17.9599 2.74505L17.8099 2.77505C16.3599 3.02505 15.0699 2.68505 13.9699 1.75505L13.7599 1.56505C13.5199 1.36505 13.1599 1.05505 13.0199 1.02505C12.8899 1.04505 12.4499 1.40505 12.2699 1.55505L12.0199 1.75505C10.7399 2.76505 9.49992 3.10505 8.33992 2.76505L7.87992 2.74505C7.55992 2.72505 7.28992 2.71505 7.04992 2.71505C6.94992 2.89505 6.83992 3.11505 6.72992 3.33505L6.52992 3.73505C6.33992 4.13505 6.12992 4.54505 5.90992 4.94505C5.66992 5.35505 5.31992 5.71505 4.92992 5.93505C4.23992 6.31505 3.53992 6.67505 2.68992 7.08505C2.73992 7.79505 2.79992 8.68505 2.80992 9.57505C2.80992 10.0651 2.66992 10.5851 2.41992 11.0051C2.20992 11.3651 1.96992 11.7151 1.73992 12.0651L1.65992 12.1851C1.46992 12.4751 1.27992 12.7551 1.08992 13.0551C1.48992 13.6451 2.06992 14.5251 2.39992 15.0751C2.64992 15.4851 2.78992 16.0051 2.78992 16.5051C2.78992 17.3651 2.72992 18.2351 2.66992 19.0051C3.51992 19.4051 4.21992 19.7651 4.90992 20.1451C5.30992 20.3651 5.67992 20.7351 5.88992 21.1351C6.10992 21.5351 6.31992 21.9451 6.51992 22.3551C6.68992 22.6951 6.85992 23.0251 7.03992 23.3651C7.27992 23.3651 7.54992 23.3551 7.86992 23.3351L8.33992 23.3151C8.52992 23.2551 8.72992 23.2251 8.91992 23.2051V23.1851L9.23992 23.1651L9.19992 23.1251Z" fill="#696B6F"/>
<path d="M17.58 20.435L16.88 19.785C16.16 19.115 15.42 18.425 15.16 18.155C14.7 17.685 14.28 17.575 13.64 17.765C11.5 18.385 9.24998 17.865 7.62998 16.355C5.98998 14.855 5.30998 12.695 5.80998 10.585C5.91998 10.235 6.22998 10.135 6.35998 10.105C6.67998 10.025 6.87998 10.155 6.95998 10.235C7.77998 10.965 8.55998 11.715 9.30998 12.505C9.75998 12.985 10.26 13.155 10.9 13.045L11.57 12.945C12.78 12.765 12.83 12.715 12.99 11.695L13.01 11.575C13.03 11.405 13.06 11.215 13.1 10.995C13.23 10.295 13.06 9.79498 12.55 9.33498C11.84 8.70498 11.13 7.98498 10.51 7.35498L10.19 7.02498C10.03 6.88498 9.94998 6.63498 10.01 6.39498C10.08 6.14498 10.29 5.95498 10.55 5.91498C12.88 5.43498 14.88 6.03498 16.47 7.69498C18.11 9.41498 18.58 11.445 17.87 13.735C17.71 14.225 17.8 14.545 18.17 14.895C18.68 15.385 20.22 16.905 20.22 16.905L20.5 17.185L20.29 17.525C19.65 18.555 17.99 20.065 17.92 20.125L17.58 20.435ZM14.17 16.675C14.81 16.675 15.36 16.935 15.87 17.455C16.13 17.725 16.85 18.395 17.56 19.055L17.58 19.075C18.01 18.665 18.74 17.935 19.21 17.325C18.74 16.865 17.84 15.975 17.48 15.625C16.83 15.015 16.64 14.305 16.91 13.445C17.5 11.525 17.11 9.82498 15.74 8.38498C14.55 7.13498 13.07 6.60498 11.35 6.79498C11.93 7.37498 12.57 8.02498 13.21 8.58498C13.99 9.28498 14.27 10.125 14.08 11.175C14.04 11.385 14.01 11.565 13.99 11.715L13.97 11.845C13.73 13.395 13.22 13.715 11.72 13.945L11.06 14.045C10.07 14.205 9.25998 13.925 8.57998 13.195C7.96998 12.555 7.33998 11.935 6.66998 11.325C6.45998 12.895 7.04998 14.475 8.28998 15.615C9.65998 16.885 11.55 17.325 13.35 16.795C13.64 16.715 13.91 16.675 14.17 16.675ZM6.26998 10.965C6.26998 10.965 6.28998 10.985 6.29998 10.985L6.26998 10.965ZM10.86 6.29498L10.9 6.33498C10.9 6.33498 10.88 6.30498 10.86 6.29498Z" fill="#696B6F"/>
</g>
<defs>
<clipPath id="clip0_1392_6399">
<rect width="26" height="25.98" fill="white" transform="translate(0 0.0150146)"/>
</clipPath>
</defs>
</svg>
