<svg width="26" height="27" viewBox="0 0 26 27" fill="none" xmlns="http://www.w3.org/2000/svg">
<g clip-path="url(#clip0_1392_6388)">
<path d="M23.5 20.01H19.5C19.22 20.01 19 19.79 19 19.51C19 19.23 19.22 19.01 19.5 19.01H23.5C24.33 19.01 25 18.34 25 17.51V2.5C25 1.67 24.33 1 23.5 1H2.5C1.67 1 1 1.67 1 2.5V17.51C1 18.34 1.67 19.01 2.5 19.01H6.5C6.78 19.01 7 19.23 7 19.51C7 19.79 6.78 20.01 6.5 20.01H2.5C1.12 20.01 0 18.89 0 17.51V2.5C0 1.12 1.12 0 2.5 0H23.5C24.88 0 26 1.12 26 2.5V17.51C26 18.89 24.88 20.01 23.5 20.01Z" fill="#696B6F"/>
<path d="M14.5 26.01H11.5C10.67 26.01 10 25.34 10 24.51V22.51C10 21.68 10.67 21.01 11.5 21.01H14.5C15.33 21.01 16 21.68 16 22.51V24.51C16 25.34 15.33 26.01 14.5 26.01ZM11.5 22.01C11.22 22.01 11 22.23 11 22.51V24.51C11 24.79 11.22 25.01 11.5 25.01H14.5C14.78 25.01 15 24.79 15 24.51V22.51C15 22.23 14.78 22.01 14.5 22.01H11.5Z" fill="#696B6F"/>
<path d="M14.4999 20.01H11.4999C10.6699 20.01 9.99991 19.34 9.99991 18.51V13.01C9.99991 12.73 9.77991 12.51 9.49991 12.51H7.49991C6.88991 12.51 6.36991 12.16 6.11991 11.61C5.87991 11.05 5.98991 10.43 6.39991 9.98997L11.8899 4.43997C12.1599 4.14997 12.5599 3.97997 12.9699 3.96997C13.3799 3.96997 13.7799 4.13997 14.0599 4.43997L19.5799 9.97997C19.9999 10.42 20.1099 11.04 19.8599 11.6C19.6099 12.16 19.0899 12.5 18.4799 12.5H16.4799C16.1999 12.5 15.9799 12.72 15.9799 13V18.5C15.9799 19.33 15.3099 20 14.4799 20L14.4999 20.01ZM12.9799 4.96997C12.8399 4.96997 12.7099 5.02997 12.6199 5.12997L7.12991 10.68C6.92991 10.89 7.01991 11.14 7.04991 11.21C7.07991 11.28 7.19991 11.51 7.50991 11.51H9.50991C10.3399 11.51 11.0099 12.18 11.0099 13.01V18.51C11.0099 18.79 11.2299 19.01 11.5099 19.01H14.5099C14.7899 19.01 15.0099 18.79 15.0099 18.51V13.01C15.0099 12.18 15.6799 11.51 16.5099 11.51H18.5099C18.8099 11.51 18.9399 11.28 18.9699 11.21C18.9999 11.14 19.0799 10.89 18.8799 10.67L13.3699 5.13997C13.2599 5.02997 13.1299 4.96997 12.9899 4.96997H12.9799Z" fill="#696B6F"/>
</g>
<defs>
<clipPath id="clip0_1392_6388">
<rect width="26" height="26.01" fill="white"/>
</clipPath>
</defs>
</svg>
