<svg width="27" height="26" viewBox="0 0 27 26" fill="none" xmlns="http://www.w3.org/2000/svg">
<g clip-path="url(#clip0_1353_8773)">
<path d="M7.00008 11.35C3.87008 11.35 1.33008 8.8 1.33008 5.67C1.33008 2.54 3.87008 0 7.00008 0C10.1301 0 12.6701 2.55 12.6701 5.67C12.6701 8.79 10.1301 11.34 7.00008 11.34V11.35ZM7.00008 1C4.42008 1 2.33008 3.1 2.33008 5.67C2.33008 8.24 4.43008 10.34 7.00008 10.34C9.57008 10.34 11.6701 8.24 11.6701 5.67C11.6701 3.1 9.58008 1 7.00008 1Z" fill="#696B6F"/>
<path d="M1.00008 15.03C1.00008 15.03 0.900083 15.03 0.850083 15.01C0.590083 14.93 0.440083 14.65 0.520083 14.38C1.27008 12.01 3.94008 10.35 7.00008 10.35C8.19008 10.35 9.35008 10.6 10.3601 11.08C10.6101 11.2 10.7201 11.49 10.6001 11.74C10.4801 11.99 10.1801 12.1 9.93008 11.98C9.05008 11.57 8.03008 11.35 6.99008 11.35C4.36008 11.35 2.09008 12.72 1.47008 14.68C1.40008 14.89 1.21008 15.03 0.990083 15.03H1.00008Z" fill="#696B6F"/>
<path d="M13.4599 22.07C10.1399 22.07 7.43994 19.37 7.43994 16.05C7.43994 12.73 10.1399 10.03 13.4599 10.03C16.7799 10.03 19.4799 12.73 19.4799 16.05C19.4799 19.37 16.7799 22.07 13.4599 22.07ZM13.4599 11.02C10.6899 11.02 8.43994 13.27 8.43994 16.04C8.43994 18.81 10.6899 21.06 13.4599 21.06C16.2299 21.06 18.4799 18.81 18.4799 16.04C18.4799 13.27 16.2299 11.02 13.4599 11.02Z" fill="#696B6F"/>
<path d="M19.8601 25.9999C19.6501 25.9999 19.4501 25.8599 19.3801 25.6499C18.7101 23.5399 16.2701 22.0699 13.4501 22.0699C10.6301 22.0699 8.19012 23.5399 7.52012 25.6499C7.44012 25.9099 7.15012 26.0599 6.89012 25.9799C6.63012 25.8999 6.48012 25.6099 6.56012 25.3499C7.36012 22.8299 10.1901 21.0699 13.4401 21.0699C16.6901 21.0699 19.5201 22.8299 20.3201 25.3499C20.4001 25.6099 20.2601 25.8899 19.9901 25.9799C19.9401 25.9999 19.8901 25.9999 19.8401 25.9999H19.8601Z" fill="#696B6F"/>
<path d="M20.29 11.62C17.37 11.62 15 9.25004 15 6.33004C15 3.41004 17.37 1.04004 20.29 1.04004C23.21 1.04004 25.58 3.41004 25.58 6.33004C25.58 9.25004 23.21 11.62 20.29 11.62ZM20.29 2.05004C17.93 2.05004 16 3.97004 16 6.34004C16 8.71004 17.92 10.63 20.29 10.63C22.66 10.63 24.58 8.71004 24.58 6.34004C24.58 3.97004 22.66 2.05004 20.29 2.05004Z" fill="#696B6F"/>
<path d="M25.9999 15.03C25.7899 15.03 25.5899 14.9 25.5299 14.69C24.9399 12.89 22.7599 11.63 20.2399 11.63C19.2399 11.63 18.2699 11.83 17.4199 12.21C17.1699 12.32 16.8699 12.21 16.7599 11.96C16.6499 11.71 16.7599 11.41 17.0099 11.3C17.9899 10.86 19.1099 10.63 20.2399 10.63C23.1899 10.63 25.7499 12.17 26.4799 14.38C26.5699 14.64 26.4199 14.92 26.1599 15.01C26.1099 15.03 26.0499 15.04 25.9999 15.04V15.03Z" fill="#696B6F"/>
</g>
<defs>
<clipPath id="clip0_1353_8773">
<rect width="26" height="26" fill="white" transform="translate(0.5)"/>
</clipPath>
</defs>
</svg>
