<svg width="25" height="24" viewBox="0 0 25 24" fill="none" xmlns="http://www.w3.org/2000/svg">
<path d="M10.1056 0.785925C10.4741 0.0488766 11.5259 0.048876 11.8944 0.785925L21.2764 19.5499C21.6088 20.2148 21.1253 20.9971 20.382 20.9971H1.61803C0.874652 20.9971 0.391156 20.2148 0.723607 19.5499L10.1056 0.785925Z" fill="#FBD409"/>
<g clip-path="url(#clip0_1701_5079)">
<path d="M11 16.9971C11.5523 16.9971 12 16.5494 12 15.9971C12 15.4448 11.5523 14.9971 11 14.9971C10.4477 14.9971 10 15.4448 10 15.9971C10 16.5494 10.4477 16.9971 11 16.9971Z" fill="#333333"/>
<path d="M12 6.99707C12 6.44479 11.5523 5.99707 11 5.99707C10.4477 5.99707 10 6.44479 10 6.99707V11.9971C10 12.5494 10.4477 12.9971 11 12.9971C11.5523 12.9971 12 12.5494 12 11.9971V6.99707Z" fill="#333333"/>
</g>
<defs>
<clipPath id="clip0_1701_5079">
<rect width="2" height="11" fill="white" transform="translate(10 5.99707)"/>
</clipPath>
</defs>
</svg>
