<svg width="25" height="25" viewBox="0 0 25 25" fill="none" xmlns="http://www.w3.org/2000/svg">
<path d="M10.1056 0.788855C10.4741 0.0518063 11.5259 0.0518057 11.8944 0.788854L21.2764 19.5528C21.6088 20.2177 21.1253 21 20.382 21H1.61803C0.874652 21 0.391156 20.2177 0.723607 19.5528L10.1056 0.788855Z" fill="#FBD409"/>
<path d="M11 17C11.5523 17 12 16.5523 12 16C12 15.4477 11.5523 15 11 15C10.4477 15 10 15.4477 10 16C10 16.5523 10.4477 17 11 17Z" fill="#333333"/>
<path d="M12 7C12 6.44772 11.5523 6 11 6C10.4477 6 10 6.44772 10 7V12C10 12.5523 10.4477 13 11 13C11.5523 13 12 12.5523 12 12V7Z" fill="#333333"/>
<rect x="13.5" y="13.5" width="10" height="10" rx="5" fill="#83B143"/>
<g clip-path="url(#clip0_1565_7426)">
<path d="M18.5 20.9987C18.37 20.9987 18.24 20.9487 18.15 20.8487L16.15 18.8487C15.95 18.6587 15.95 18.3387 16.15 18.1487C16.35 17.9587 16.66 17.9487 16.86 18.1487L18.43 19.7187L20.08 17.2187C20.23 16.9887 20.54 16.9287 20.77 17.0787C21 17.2287 21.06 17.5387 20.91 17.7687L18.92 20.7787C18.84 20.8987 18.7 20.9887 18.55 20.9987C18.53 20.9987 18.52 20.9987 18.5 20.9987Z" fill="white"/>
</g>
<rect x="13.5" y="13.5" width="10" height="10" rx="5" stroke="white"/>
<defs>
<clipPath id="clip0_1565_7426">
<rect width="5" height="4" fill="white" transform="translate(16 16.9988)"/>
</clipPath>
</defs>
</svg>
