<svg width="25" height="25" viewBox="0 0 25 25" fill="none" xmlns="http://www.w3.org/2000/svg">
<path d="M0 12.0009C0 5.37348 5.37412 0.000610352 12.0015 0.000610352C18.629 0.000610352 24.0031 5.37348 24.0031 12.0009C24.0031 18.6283 18.629 24.0012 12.0015 24.0012C5.37412 24.0012 0 18.6283 0 12.0009Z" fill="#83B143"/>
<path d="M11.0025 17.0012C10.7425 17.0012 10.4825 16.9012 10.2925 16.7112L6.2925 12.7112C5.9025 12.3212 5.9025 11.6912 6.2925 11.3012C6.6825 10.9112 7.3125 10.9112 7.7025 11.3012L10.9425 14.5412L16.2425 8.35118C16.6025 7.93118 17.2325 7.88118 17.6525 8.24118C18.0725 8.60118 18.1225 9.23118 17.7625 9.65118L11.7625 16.6512C11.5825 16.8612 11.3225 16.9912 11.0425 17.0012H11.0025Z" fill="white"/>
<rect x="13.5" y="13.5" width="10" height="10" rx="5" fill="#C41D39"/>
<rect x="16.3787" y="15.6716" width="7" height="1" rx="0.5" transform="rotate(45 16.3787 15.6716)" fill="white"/>
<rect x="21.3284" y="16.3787" width="7" height="1" rx="0.5" transform="rotate(135 21.3284 16.3787)" fill="white"/>
<rect x="13.5" y="13.5" width="10" height="10" rx="5" stroke="white"/>
</svg>
