<svg width="25" height="24" viewBox="0 0 25 24" fill="none" xmlns="http://www.w3.org/2000/svg">
<path d="M0 12.0003C0 5.37287 5.37412 0 12.0015 0C18.629 0 24.0031 5.37287 24.0031 12.0003C24.0031 18.6277 18.629 24.0006 12.0015 24.0006C5.37412 24.0006 0 18.6277 0 12.0003Z" fill="#83B143"/>
<path d="M11.0025 17.0006C10.7425 17.0006 10.4825 16.9006 10.2925 16.7106L6.2925 12.7106C5.9025 12.3206 5.9025 11.6906 6.2925 11.3006C6.6825 10.9106 7.3125 10.9106 7.7025 11.3006L10.9425 14.5406L16.2425 8.35057C16.6025 7.93057 17.2325 7.88057 17.6525 8.24057C18.0725 8.60057 18.1225 9.23057 17.7625 9.65057L11.7625 16.6506C11.5825 16.8606 11.3225 16.9906 11.0425 17.0006H11.0025Z" fill="white"/>
</svg>
