<svg width="25" height="25" viewBox="0 0 25 25" fill="none" xmlns="http://www.w3.org/2000/svg">
<path d="M0 12.0021C0 5.3747 5.37412 0.00183105 12.0015 0.00183105C18.629 0.00183105 24.0031 5.3747 24.0031 12.0021C24.0031 18.6295 18.629 24.0024 12.0015 24.0024C5.37412 24.0024 0 18.6295 0 12.0021Z" fill="#47A4F5"/>
<rect x="13.5" y="13.5" width="10" height="10" rx="5" fill="#83B143"/>
<g clip-path="url(#clip0_1561_7846)">
<path d="M18.5 20.9987C18.37 20.9987 18.24 20.9487 18.15 20.8487L16.15 18.8487C15.95 18.6587 15.95 18.3387 16.15 18.1487C16.35 17.9587 16.66 17.9487 16.86 18.1487L18.43 19.7187L20.08 17.2187C20.23 16.9887 20.54 16.9287 20.77 17.0787C21 17.2287 21.06 17.5387 20.91 17.7687L18.92 20.7787C18.84 20.8987 18.7 20.9887 18.55 20.9987C18.53 20.9987 18.52 20.9987 18.5 20.9987Z" fill="white"/>
</g>
<rect x="13.5" y="13.5" width="10" height="10" rx="5" stroke="white"/>
<path d="M12 8C12.5523 8 13 7.55228 13 7C13 6.44772 12.5523 6 12 6C11.4477 6 11 6.44772 11 7C11 7.55228 11.4477 8 12 8Z" fill="white"/>
<path d="M12 17C11.45 17 11 16.55 11 16V10C11 9.45 11.45 9 12 9C12.55 9 13 9.45 13 10V16C13 16.55 12.55 17 12 17Z" fill="white"/>
<defs>
<clipPath id="clip0_1561_7846">
<rect width="5" height="4" fill="white" transform="translate(16 16.9988)"/>
</clipPath>
</defs>
</svg>
