<svg width="25" height="24" viewBox="0 0 25 24" fill="none" xmlns="http://www.w3.org/2000/svg">
<path d="M0 12.0003C0 5.37287 5.37412 0 12.0015 0C18.629 0 24.0031 5.37287 24.0031 12.0003C24.0031 18.6277 18.629 24.0006 12.0015 24.0006C5.37412 24.0006 0 18.6277 0 12.0003Z" fill="#47A4F5"/>
<g clip-path="url(#clip0_1701_5157)">
<path d="M12 7.99817C12.5523 7.99817 13 7.55045 13 6.99817C13 6.44588 12.5523 5.99817 12 5.99817C11.4477 5.99817 11 6.44588 11 6.99817C11 7.55045 11.4477 7.99817 12 7.99817Z" fill="white"/>
<path d="M12 16.9982C11.45 16.9982 11 16.5482 11 15.9982V9.99817C11 9.44817 11.45 8.99817 12 8.99817C12.55 8.99817 13 9.44817 13 9.99817V15.9982C13 16.5482 12.55 16.9982 12 16.9982Z" fill="white"/>
</g>
<defs>
<clipPath id="clip0_1701_5157">
<rect width="2" height="11" fill="white" transform="translate(11 5.99817)"/>
</clipPath>
</defs>
</svg>
