<svg width="26" height="36" viewBox="0 0 26 36" fill="none" xmlns="http://www.w3.org/2000/svg">
<path d="M23 0H3C1.34 0 0 1.34 0 3V33C0 34.66 1.34 36 3 36H23C24.66 36 26 34.66 26 33V3C26 1.34 24.66 0 23 0Z" fill="white"/>
<path d="M23 1C24.1 1 25 1.9 25 3V33C25 34.1 24.1 35 23 35H3C1.9 35 1 34.1 1 33V3C1 1.9 1.9 1 3 1H23ZM23 0H3C1.34 0 0 1.34 0 3V33C0 34.66 1.34 36 3 36H23C24.66 36 26 34.66 26 33V3C26 1.34 24.66 0 23 0Z" fill="#D0D0D0"/>
<rect width="24" height="9" transform="translate(1 23)" fill="url(#paint0_linear_2042_10694)"/>
<path d="M7.747 27.4485C8.076 27.4485 8.31633 27.3692 8.468 27.2105C8.622 27.0518 8.699 26.8348 8.699 26.5595C8.699 26.4335 8.67917 26.3192 8.6395 26.2165C8.60217 26.1115 8.54383 26.0228 8.4645 25.9505C8.3875 25.8758 8.2895 25.8187 8.1705 25.779C8.0515 25.7393 7.91033 25.7195 7.747 25.7195H7.082V27.4485H7.747ZM7.747 24.9215C8.09467 24.9215 8.3945 24.9623 8.6465 25.044C8.90083 25.1257 9.10967 25.24 9.273 25.387C9.43633 25.5317 9.5565 25.7043 9.6335 25.905C9.71283 26.1057 9.7525 26.3238 9.7525 26.5595C9.7525 26.8092 9.71167 27.0378 9.63 27.2455C9.54833 27.4532 9.42467 27.6317 9.259 27.781C9.09333 27.9303 8.8845 28.047 8.6325 28.131C8.3805 28.2127 8.08533 28.2535 7.747 28.2535H7.082V30H6.032V24.9215H7.747ZM15.5342 27.459C15.5342 27.83 15.4712 28.1718 15.3452 28.4845C15.2215 28.7948 15.0453 29.062 14.8167 29.286C14.5903 29.51 14.3173 29.685 13.9977 29.811C13.678 29.937 13.3233 30 12.9337 30H10.9807V24.9215H12.9337C13.3233 24.9215 13.678 24.9845 13.9977 25.1105C14.3173 25.2365 14.5903 25.4127 14.8167 25.639C15.0453 25.863 15.2215 26.1302 15.3452 26.4405C15.4712 26.7508 15.5342 27.0903 15.5342 27.459ZM14.4562 27.459C14.4562 27.193 14.4212 26.9538 14.3512 26.7415C14.2812 26.5292 14.1808 26.3495 14.0502 26.2025C13.9195 26.0555 13.7597 25.9423 13.5707 25.863C13.384 25.7837 13.1717 25.744 12.9337 25.744H12.0377V29.1775H12.9337C13.1717 29.1775 13.384 29.139 13.5707 29.062C13.7597 28.9827 13.9195 28.8695 14.0502 28.7225C14.1808 28.5732 14.2812 28.3923 14.3512 28.18C14.4212 27.9677 14.4562 27.7273 14.4562 27.459ZM17.9229 25.744V27.1475H19.7499V27.9735H17.9229V30H16.8659V24.9215H20.0999V25.744H17.9229Z" fill="white"/>
<path d="M10.7302 7.59C10.7302 6.43 11.3502 5.5 12.1302 5.5C12.9102 5.5 13.5302 6.44 13.5302 7.59C13.5302 8.45 12.3702 14.23 10.0402 17.98C9.31023 19.16 7.55023 21.79 5.85023 20.54C3.76023 18.75 11.4302 15.26 18.4102 14.57C19.5702 14.57 20.5002 15.04 20.5002 15.62C20.5002 16.2 20.2602 16.67 19.1002 16.67C17.0102 16.67 10.7302 10.39 10.7302 7.6V7.59Z" stroke="#E72041" stroke-miterlimit="10"/>
<defs>
<linearGradient id="paint0_linear_2042_10694" x1="0" y1="0" x2="24" y2="9" gradientUnits="userSpaceOnUse">
<stop stop-color="#ED2243"/>
<stop offset="0.554231" stop-color="#EB1D3F"/>
<stop offset="1" stop-color="#E9193C"/>
</linearGradient>
</defs>
</svg>
