<svg width="24" height="24" viewBox="0 0 24 24" fill="none" xmlns="http://www.w3.org/2000/svg">
<path d="M0 12C0 5.37258 5.37258 0 12 0V0C18.6274 0 24 5.37258 24 12V12C24 18.6274 18.6274 24 12 24V24C5.37258 24 0 18.6274 0 12V12Z" fill="#D0D0D0"/>
<path d="M12.5 15.1241C12.0325 15.1241 11.65 14.7416 11.65 14.2741V13.0076C11.65 12.5401 12.0325 12.1576 12.5 12.1576C13.3585 12.1576 14.0555 11.4606 14.0555 10.6021C14.0555 9.74356 13.3585 9.04656 12.5 9.04656C11.6415 9.04656 10.9445 9.74356 10.9445 10.6021C10.9445 11.0696 10.562 11.4521 10.0945 11.4521C9.62701 11.4521 9.24451 11.0696 9.24451 10.6021C9.24451 8.80856 10.7065 7.34656 12.5 7.34656C14.2935 7.34656 15.7555 8.80856 15.7555 10.6021C15.7555 12.1066 14.7355 13.3731 13.35 13.7471V14.2741C13.35 14.7416 12.9675 15.1241 12.5 15.1241Z" fill="white"/>
<path d="M12.5 17.6061C12.9695 17.6061 13.35 17.2256 13.35 16.7561C13.35 16.2867 12.9695 15.9061 12.5 15.9061C12.0306 15.9061 11.65 16.2867 11.65 16.7561C11.65 17.2256 12.0306 17.6061 12.5 17.6061Z" fill="white"/>
</svg>
